<svg xmlns="http://www.w3.org/2000/svg" xmlns:xlink="http://www.w3.org/1999/xlink" width="1097.106" height="845.4" viewBox="0 0 1097.106 845.4">
  <defs>
    <linearGradient id="linear-gradient" x1="0.5" y1="1" x2="0.5" gradientUnits="objectBoundingBox">
      <stop offset="0" stop-color="gray" stop-opacity="0.251"/>
      <stop offset="0.54" stop-color="gray" stop-opacity="0.122"/>
      <stop offset="1" stop-color="gray" stop-opacity="0.102"/>
    </linearGradient>
    <linearGradient id="linear-gradient-2" x1="0.5" y1="1" x2="0.5" y2="0" xlink:href="#linear-gradient"/>
    <linearGradient id="linear-gradient-3" x1="0" y1="0.5" x2="1" y2="0.5" xlink:href="#linear-gradient"/>
  </defs>
  <g id="undraw_loading_frh4" transform="translate(0.01 0.02)">
    <path id="Path_1" data-name="Path 1" d="M921.62,722.06c16,8.09,35.57,3.17,53.75,3.74,2.49.08,5.12.32,7.12,1.71s3,3.67,4.35,5.61c5.09,7.21,15.53,9.53,24.65,8.31s17.49-5.28,26.1-8.37c14.88-5.33,31.89-7.76,46.57-1.94a8.471,8.471,0,0,0,4.21.93c3.22-.47,4.17-4.35,6.43-6.56,4.06-4,12.88-2.9,14.67-8.16,1-3.09-1.36-6.25-4-8.35-10-8.06-24.38-9.39-37.52-8.14s-26,4.66-39.23,4.68c-16.44,0-32.33-5.26-48.61-7.41-11.28-1.5-23.59-1.31-34.17,3.09C934.51,706,932,716.64,921.62,722.06Z" transform="translate(-51.45 -27.31)" fill="#6c63ff" opacity="0.1"/>
    <path id="Path_2" data-name="Path 2" d="M63.3,457.28c17.36,74.2,54.11,138.34,112.18,169.43,120.71,64.61,392.92,31.28,596.07-7a465.2,465.2,0,0,0,264.54-151.22Z" transform="translate(-51.45 -27.31)" fill="#6c63ff" opacity="0.1"/>
    <path id="Path_3" data-name="Path 3" d="M1128.65,108H1017.18a9.63,9.63,0,1,1,0-19.26h19.27a9.64,9.64,0,0,1,0-19.27h-13.76a9.64,9.64,0,0,1,0-19.27h58.18c-12.91-6-28-10.27-45.39-12.5-158.64-20.38-215.28-6.9-235.26,7-24.65,17.1-52.15,29.68-81.54,35.74-97.88,20.19-280.93,44.49-446.84-7.77-82.46-26-143.74,17.91-180.48,91.28H1148c-1.38-21.33-5.51-41-13.09-58.25A9.56,9.56,0,0,1,1128.65,108Z" transform="translate(-51.45 -27.31)" fill="#6c63ff" opacity="0.1"/>
    <path id="Path_4" data-name="Path 4" d="M53.84,302.41a491.108,491.108,0,0,0,4.32,129.45l978.68,35.8a460,460,0,0,0,68-103.7Zm387.08,92.35H421.65a9.63,9.63,0,1,1,0,19.26H310.18a9.63,9.63,0,1,1,0-19.26h19.27a9.64,9.64,0,0,1,0-19.27H315.69a9.64,9.64,0,0,1,0-19.27H427.16a9.64,9.64,0,0,1,0,19.27h13.76a9.64,9.64,0,0,1,0,19.27Z" transform="translate(-51.45 -27.31)" fill="#6c63ff" opacity="0.1"/>
    <path id="Path_5" data-name="Path 5" d="M1148.05,164.6,79.57,190.6C66.57,224,58,261.77,54,300.93H1129.33a457.418,457.418,0,0,0,15.53-70.34C1148.06,207.58,1149.34,185.33,1148.05,164.6ZM270.92,249.76H251.65a9.63,9.63,0,1,1,0,19.26H140.18a9.63,9.63,0,0,1,0-19.26h19.27a9.64,9.64,0,0,1,0-19.27H145.69a9.64,9.64,0,0,1,0-19.27H257.16a9.64,9.64,0,0,1,0,19.27h13.76a9.64,9.64,0,0,1,0,19.27Z" transform="translate(-51.45 -27.31)" fill="#6c63ff" opacity="0.1"/>
    <g id="Group_1" data-name="Group 1" opacity="0.1">
      <path id="Path_6" data-name="Path 6" d="M634.76,620.93s28.2-69.5,80.86-95.29a113.619,113.619,0,0,0,51.57-50.07,191.3,191.3,0,0,0,12.93-32.48" transform="translate(-51.45 -27.31)" fill="none" stroke="#535461" stroke-miterlimit="10" stroke-width="2"/>
      <path id="Path_7" data-name="Path 7" d="M813.21,426.65c-5.49,6.9-33.9,17-33.9,17s3.42-29.95,8.91-36.85a16,16,0,1,1,25,19.88Z" transform="translate(-51.45 -27.31)" fill="#6c63ff"/>
      <path id="Path_8" data-name="Path 8" d="M803.46,481.3c-8.36,2.81-37.68-4.17-37.68-4.17s19.15-23.28,27.51-26.09a16,16,0,1,1,10.17,30.26Z" transform="translate(-51.45 -27.31)" fill="#6c63ff"/>
      <path id="Path_9" data-name="Path 9" d="M750.6,545.91c-8.63-1.79-30.42-22.63-30.42-22.63s28.29-10.43,36.92-8.63a16,16,0,0,1-6.5,31.26Z" transform="translate(-51.45 -27.31)" fill="#6c63ff"/>
      <path id="Path_10" data-name="Path 10" d="M699.6,585.79c-8.81-.31-33.81-17.16-33.81-17.16s26.12-15.06,34.93-14.76a16,16,0,1,1-1.12,31.92Z" transform="translate(-51.45 -27.31)" fill="#6c63ff"/>
      <path id="Path_11" data-name="Path 11" d="M738.48,457.6c1.12,8.74,20.22,32.07,20.22,32.07s12.58-27.4,11.45-36.15a16,16,0,1,0-31.67,4.08Z" transform="translate(-51.45 -27.31)" fill="#6c63ff"/>
      <path id="Path_12" data-name="Path 12" d="M679.42,505c3.69,8,28.9,24.55,28.9,24.55s3.79-29.91.1-37.92a16,16,0,0,0-29,13.37Z" transform="translate(-51.45 -27.31)" fill="#6c63ff"/>
      <path id="Path_13" data-name="Path 13" d="M628.34,558.93c2.29,8.51,24.33,29.08,24.33,29.08s8.8-28.84,6.52-37.35a16,16,0,0,0-30.85,8.27Z" transform="translate(-51.45 -27.31)" fill="#6c63ff"/>
      <path id="Path_14" data-name="Path 14" d="M813.21,426.65c-5.49,6.9-33.9,17-33.9,17s3.42-29.95,8.91-36.85a16,16,0,1,1,25,19.88Z" transform="translate(-51.45 -27.31)" opacity="0.25"/>
      <path id="Path_15" data-name="Path 15" d="M803.46,481.3c-8.36,2.81-37.68-4.17-37.68-4.17s19.15-23.28,27.51-26.09a16,16,0,1,1,10.17,30.26Z" transform="translate(-51.45 -27.31)" opacity="0.25"/>
      <path id="Path_16" data-name="Path 16" d="M750.6,545.91c-8.63-1.79-30.42-22.63-30.42-22.63s28.29-10.43,36.92-8.63a16,16,0,0,1-6.5,31.26Z" transform="translate(-51.45 -27.31)" opacity="0.25"/>
      <path id="Path_17" data-name="Path 17" d="M699.6,585.79c-8.81-.31-33.81-17.16-33.81-17.16s26.12-15.06,34.93-14.76a16,16,0,1,1-1.12,31.92Z" transform="translate(-51.45 -27.31)" opacity="0.25"/>
      <path id="Path_18" data-name="Path 18" d="M738.48,457.6c1.12,8.74,20.22,32.07,20.22,32.07s12.58-27.4,11.45-36.15a16,16,0,1,0-31.67,4.08Z" transform="translate(-51.45 -27.31)" opacity="0.25"/>
      <path id="Path_19" data-name="Path 19" d="M679.42,505c3.69,8,28.9,24.55,28.9,24.55s3.79-29.91.1-37.92a16,16,0,0,0-29,13.37Z" transform="translate(-51.45 -27.31)" opacity="0.25"/>
      <path id="Path_20" data-name="Path 20" d="M628.34,558.93c2.29,8.51,24.33,29.08,24.33,29.08s8.8-28.84,6.52-37.35a16,16,0,0,0-30.85,8.27Z" transform="translate(-51.45 -27.31)" opacity="0.25"/>
    </g>
    <g id="Group_2" data-name="Group 2" opacity="0.1">
      <path id="Path_21" data-name="Path 21" d="M655.86,515.7s3.56-74.92,44.69-116.7a113.64,113.64,0,0,0,32.05-64.35,191.181,191.181,0,0,0,1.4-34.92" transform="translate(-51.45 -27.31)" fill="none" stroke="#535461" stroke-miterlimit="10" stroke-width="2"/>
      <path id="Path_22" data-name="Path 22" d="M759.79,273.24c-2.89,8.33-26.35,27.25-26.35,27.25s-6.7-29.39-3.82-37.72a16,16,0,1,1,30.17,10.47Z" transform="translate(-51.45 -27.31)" fill="#6c63ff"/>
      <path id="Path_23" data-name="Path 23" d="M768.72,328c-7,5.43-36.94,8.56-36.94,8.56s10.35-28.32,17.3-33.74A16,16,0,0,1,768.72,328Z" transform="translate(-51.45 -27.31)" fill="#6c63ff"/>
      <path id="Path_24" data-name="Path 24" d="M740.28,406.51c-8.74,1.17-36.21-11.26-36.21-11.26S727.3,376,736,374.86a16,16,0,0,1,4.24,31.65Z" transform="translate(-51.45 -27.31)" fill="#6c63ff"/>
      <path id="Path_25" data-name="Path 25" d="M705.38,461.05c-8.41,2.63-37.58-5-37.58-5s19.64-22.87,28.06-25.5a16,16,0,1,1,9.52,30.48Z" transform="translate(-51.45 -27.31)" fill="#6c63ff"/>
      <path id="Path_26" data-name="Path 26" d="M699.55,327.22c4,7.87,29.72,23.55,29.72,23.55s2.77-30-1.19-37.9a16,16,0,1,0-28.53,14.35Z" transform="translate(-51.45 -27.31)" fill="#6c63ff"/>
      <path id="Path_27" data-name="Path 27" d="M659.55,391.51c6.14,6.33,35.4,13.58,35.4,13.58s-6.33-29.47-12.47-35.8a16,16,0,1,0-22.93,22.22Z" transform="translate(-51.45 -27.31)" fill="#6c63ff"/>
      <path id="Path_28" data-name="Path 28" d="M629.25,459.34c5,7.28,32.6,19.36,32.6,19.36s-1.27-30.12-6.24-37.39a16,16,0,1,0-26.36,18Z" transform="translate(-51.45 -27.31)" fill="#6c63ff"/>
    </g>
    <path id="Path_29" data-name="Path 29" d="M1040.05,650s5.5,7.19-2.53,18-14.65,20-12,26.77c0,0,12.12-20.14,22-20.43S1050.9,662.11,1040.05,650Z" transform="translate(-51.45 -27.31)" fill="#929292"/>
    <path id="Path_30" data-name="Path 30" d="M1040.05,650a9,9,0,0,1,1.13,2.26c9.62,11.3,14.74,21.85,5.49,22.11-8.61.25-18.94,15.65-21.42,19.54a9.221,9.221,0,0,0,.29.89s12.12-20.14,22-20.43S1050.9,662.11,1040.05,650Z" transform="translate(-51.45 -27.31)" opacity="0.1"/>
    <path id="Path_31" data-name="Path 31" d="M1050.27,659.15c0,2.53-.29,4.58-.64,4.58s-.63-2.05-.63-4.58.35-1.34.7-1.34S1050.27,656.62,1050.27,659.15Z" transform="translate(-51.45 -27.31)" fill="#ffd037"/>
    <path id="Path_32" data-name="Path 32" d="M1053.77,662.17c-2.22,1.21-4.16,1.94-4.32,1.63s1.49-1.53,3.71-2.74,1.35-.33,1.52,0S1056,661,1053.77,662.17Z" transform="translate(-51.45 -27.31)" fill="#ffd037"/>
    <path id="Path_33" data-name="Path 33" d="M1011,650s-5.5,7.19,2.53,18,14.65,20,12,26.77c0,0-12.11-20.14-22-20.43S1000.19,662.11,1011,650Z" transform="translate(-51.45 -27.31)" fill="#929292"/>
    <path id="Path_34" data-name="Path 34" d="M1011,650a9,9,0,0,0-1.13,2.26c-9.62,11.3-14.74,21.85-5.49,22.11,8.61.25,18.94,15.65,21.42,19.54a7.143,7.143,0,0,1-.3.89s-12.11-20.14-22-20.43S1000.19,662.11,1011,650Z" transform="translate(-51.45 -27.31)" opacity="0.1"/>
    <path id="Path_35" data-name="Path 35" d="M1000.82,659.15c0,2.53.29,4.58.64,4.58s.63-2.05.63-4.58-.35-1.34-.7-1.34S1000.82,656.62,1000.82,659.15Z" transform="translate(-51.45 -27.31)" fill="#ffd037"/>
    <path id="Path_36" data-name="Path 36" d="M997.32,662.17c2.22,1.21,4.15,1.94,4.32,1.63s-1.49-1.53-3.71-2.74-1.35-.33-1.52,0S995.1,661,997.32,662.17Z" transform="translate(-51.45 -27.31)" fill="#ffd037"/>
    <path id="Path_37" data-name="Path 37" d="M1002.57,693.85s15.36-.47,20-3.77,23.63-7.23,24.78-2,23.08,26.3,5.74,26.44-40.29-2.71-44.91-5.52S1002.57,693.85,1002.57,693.85Z" transform="translate(-51.45 -27.31)" fill="#a8a8a8"/>
    <path id="Path_38" data-name="Path 38" d="M1053.39,712.72c-17.34.14-40.29-2.7-44.91-5.51-3.52-2.14-4.92-9.83-5.39-13.38h-.52s1,12.39,5.6,15.2,27.57,5.65,44.91,5.52c5-.05,6.73-1.83,6.64-4.46C1059,711.7,1057.11,712.69,1053.39,712.72Z" transform="translate(-51.45 -27.31)" opacity="0.2"/>
    <path id="Path_39" data-name="Path 39" d="M52.29,745.83c20.68,7.48,45.91,2.93,69.37,3.46,3.21.07,6.62.29,9.19,1.58s3.85,3.39,5.61,5.18c6.58,6.67,20,8.82,31.83,7.69S190.86,758.86,202,756c19.21-4.93,41.17-7.18,60.12-1.8a14.52,14.52,0,0,0,5.43.86c4.15-.44,5.39-4,8.3-6.06,5.24-3.69,16.63-2.69,18.94-7.56,1.35-2.85-1.76-5.77-5.14-7.72-12.95-7.45-31.48-8.68-48.42-7.53s-33.61,4.32-50.65,4.33c-21.22,0-41.73-4.86-62.75-6.85-14.56-1.38-30.44-1.21-44.09,2.86C68.92,730.93,65.66,740.81,52.29,745.83Z" transform="translate(-51.45 -27.31)" fill="#6c63ff" opacity="0.1"/>
    <path id="Path_40" data-name="Path 40" d="M286.09,726.22a11.63,11.63,0,0,0,3.84-5.78c.49-2.3-.49-5.05-2.68-5.89-2.46-.94-5.09.76-7.08,2.48s-4.28,3.69-6.89,3.33a10.49,10.49,0,0,0,3.24-9.82,4.12,4.12,0,0,0-.9-2c-1.36-1.46-3.84-.83-5.48.32-5.2,3.66-6.65,10.72-6.67,17.08-.53-2.3-.09-4.68-.1-7s-.66-5-2.64-6.22a8,8,0,0,0-4-1c-2.34-.08-4.94.15-6.54,1.86-2,2.12-1.47,5.69.26,8s4.35,3.8,6.76,5.42a15,15,0,0,1,4.84,4.61,4.413,4.413,0,0,1,.36.82H277A40.439,40.439,0,0,0,286.09,726.22Z" transform="translate(-51.45 -27.31)" fill="#787878"/>
    <path id="Path_41" data-name="Path 41" d="M169.66,742s-14-47.71,2.63-82.83a75.4,75.4,0,0,0,6.1-47.27,127.522,127.522,0,0,0-6.7-22.19" transform="translate(-51.45 -27.31)" fill="none" stroke="#535461" stroke-miterlimit="10" stroke-width="2"/>
    <path id="Path_42" data-name="Path 42" d="M182.08,567.52c0,5.85-10.59,22.8-10.59,22.8s-10.59-17-10.59-22.8a10.59,10.59,0,0,1,21.18,0Z" transform="translate(-51.45 -27.31)" fill="#6c63ff"/>
    <path id="Path_43" data-name="Path 43" d="M199.58,599.91c-3.18,4.9-21.28,13.38-21.28,13.38s.32-20,3.5-24.89a10.59,10.59,0,1,1,17.78,11.51Z" transform="translate(-51.45 -27.31)" fill="#6c63ff"/>
    <path id="Path_44" data-name="Path 44" d="M198.81,655.25c-5.22,2.63-25.13.82-25.13.82s10.38-17.09,15.6-19.72a10.583,10.583,0,1,1,9.53,18.9Z" transform="translate(-51.45 -27.31)" fill="#6c63ff"/>
    <path id="Path_45" data-name="Path 45" d="M188.8,697c-4.7,3.47-24.63,5-24.63,5s7.34-18.6,12-22.08a10.59,10.59,0,1,1,12.59,17Z" transform="translate(-51.45 -27.31)" fill="#6c63ff"/>
    <path id="Path_46" data-name="Path 46" d="M156.07,614.43c4.19,4.07,23.73,8.29,23.73,8.29s-4.79-19.41-9-23.48a10.59,10.59,0,1,0-14.75,15.19Z" transform="translate(-51.45 -27.31)" fill="#6c63ff"/>
    <path id="Path_47" data-name="Path 47" d="M145,663.4c5.22,2.63,25.13.81,25.13.81s-10.37-17.09-15.6-19.72A10.589,10.589,0,1,0,145,663.4Z" transform="translate(-51.45 -27.31)" fill="#6c63ff"/>
    <path id="Path_48" data-name="Path 48" d="M140.74,712.47c4.7,3.48,24.63,5,24.63,5s-7.34-18.6-12-22.07a10.59,10.59,0,1,0-12.59,17Z" transform="translate(-51.45 -27.31)" fill="#6c63ff"/>
    <path id="Path_49" data-name="Path 49" d="M182.08,567.52c0,5.85-10.59,22.8-10.59,22.8s-10.59-17-10.59-22.8a10.59,10.59,0,0,1,21.18,0Z" transform="translate(-51.45 -27.31)" fill="#787878"/>
    <path id="Path_50" data-name="Path 50" d="M199.58,599.91c-3.18,4.9-21.28,13.38-21.28,13.38s.32-20,3.5-24.89a10.59,10.59,0,1,1,17.78,11.51Z" transform="translate(-51.45 -27.31)" fill="#787878"/>
    <path id="Path_51" data-name="Path 51" d="M198.81,655.25c-5.22,2.63-25.13.82-25.13.82s10.38-17.09,15.6-19.72a10.583,10.583,0,1,1,9.53,18.9Z" transform="translate(-51.45 -27.31)" fill="#787878"/>
    <path id="Path_52" data-name="Path 52" d="M188.8,697c-4.7,3.47-24.63,5-24.63,5s7.34-18.6,12-22.08a10.59,10.59,0,1,1,12.59,17Z" transform="translate(-51.45 -27.31)" fill="#787878"/>
    <path id="Path_53" data-name="Path 53" d="M156.07,614.43c4.19,4.07,23.73,8.29,23.73,8.29s-4.79-19.41-9-23.48a10.59,10.59,0,1,0-14.75,15.19Z" transform="translate(-51.45 -27.31)" fill="#787878"/>
    <path id="Path_54" data-name="Path 54" d="M145,663.4c5.22,2.63,25.13.81,25.13.81s-10.37-17.09-15.6-19.72A10.589,10.589,0,1,0,145,663.4Z" transform="translate(-51.45 -27.31)" fill="#787878"/>
    <path id="Path_55" data-name="Path 55" d="M140.74,712.47c4.7,3.48,24.63,5,24.63,5s-7.34-18.6-12-22.07a10.59,10.59,0,1,0-12.59,17Z" transform="translate(-51.45 -27.31)" fill="#787878"/>
    <path id="Path_56" data-name="Path 56" d="M136.45,739s17.11-3.4,21.67-7.93,25.1-12.46,27.38-6.79,30.8,24.91,11.41,28.31-45.63,4.53-51.34,2.27S136.45,739,136.45,739Z" transform="translate(-51.45 -27.31)" fill="#a8a8a8"/>
    <path id="Path_57" data-name="Path 57" d="M196.91,750.48c-19.4,3.4-45.63,4.53-51.34,2.26-4.34-1.72-7.36-10-8.55-13.87l-.57.12s3.42,13.59,9.12,15.86,31.94,1.13,51.34-2.27c5.59-1,7.19-3.28,6.59-6.2C203,748.28,201.07,749.75,196.91,750.48Z" transform="translate(-51.45 -27.31)" opacity="0.2"/>
    <path id="Path_58" data-name="Path 58" d="M395.27,840.55c39.32,13.21,87.29,5.17,131.9,6.11,6.11.13,12.58.51,17.48,2.79s7.3,6,10.66,9.16c12.51,11.78,38.12,15.58,60.51,13.57s42.92-8.62,64-13.66c36.52-8.72,78.27-12.68,114.29-3.18,3.31.87,6.79,1.87,10.33,1.52,7.9-.77,10.25-7.1,15.78-10.71,10-6.52,31.62-4.75,36-13.34,2.57-5-3.34-10.21-9.77-13.64-24.61-13.17-59.83-15.34-92.06-13.3s-63.9,7.62-96.29,7.64c-40.35,0-79.34-8.58-119.3-12.1-27.68-2.45-57.89-2.14-83.84,5C426.89,814.24,420.69,831.68,395.27,840.55Z" transform="translate(-51.45 -27.31)" fill="#6c63ff" opacity="0.1"/>
    <path id="Path_59" data-name="Path 59" d="M761.38,739.83c.22-1.91.54-3.81.88-5.71,1.5-8.23-.79-16.07-2-19.3h0c-.35-1-.61-1.57-.61-1.57-6.07-1.65-30,16.89-38.68,23.88-3,0-6.3.13-9.87.37-1.56.11-3.13.15-4.69.12H700.7c-8.09-6.51-33.1-26.1-39.34-24.4,0,0-.25.56-.61,1.57h0c-1.17,3.23-3.45,11.07-2,19.3.35,1.9.66,3.8.88,5.71.47,4.19,2.22,12.2,8.58,17.63,1.35,9.9,6.45,22.91,10.37,30.81a22.381,22.381,0,0,0,1.33,4.36c-1.62,6.24-3.48,14.39-3,17.08,0,0-8.45-2.05-9.31,8.13v.31c-3.06,1.41-6.87,4.61-2.58,11.34a4.38,4.38,0,0,0,2.21,1.79c.76.27,1.5.27,1.42-.8l5.29,6s9.58,1.1,9.69-4.46l.56.09c1.29.19,2.64.35,4,.49l.66,2.2s-7.19-.15-5.23,4.27c0,0,1.81,1.68,2.43,1.07,0,0-.93,2.9,2.8,2.9,0,0,4,2.14,5.59.62s4.83-3.82,5.14-4.74c.09-.25.13-2.51.14-5.63h.62c8,.19,16.54-.07,24.3-.49h.62c0,3.39.05,5.87.14,6.14.31.92,3.58,3.21,5.14,4.74s5.59-.62,5.59-.62c3.73,0,2.8-2.9,2.8-2.9.62.61,2.43-1.07,2.43-1.07,2-4.42-5.23-4.27-5.23-4.27l.85-2.82,4-.33.62-.06c-.38,6.05,9.69,4.89,9.69,4.89l5.29-6c-.08,1.07.66,1.07,1.42.8a4.379,4.379,0,0,0,2.21-1.79c6.48-10.14-5.5-12.29-5.5-12.29a5.565,5.565,0,0,0-1.13-.18c0-.18,0-.36,0-.53h0a22.61,22.61,0,0,0,.08-4c-.45-1.83-3.41-4.73-7.14-5.19-2.43-.3-2.49-11.49-2.23-19.25a22.663,22.663,0,0,0,.38-4.43,23.618,23.618,0,0,0-1-7.06c4.77-8.08,8.59-16.54,9-19.09C759.17,752,760.91,744,761.38,739.83Z" transform="translate(-51.45 -27.31)" fill="url(#linear-gradient)"/>
    <path id="Path_60" data-name="Path 60" d="M752.17,817h0c-.38,5.27-1.4,13.73-1.4,13.73s-4.24.52-10.79,1.11l-4.44.38c-3.42.27-7.24.54-11.28.77-7.48.41-15.69.66-23.42.48-3.87-.09-7.62-.29-11.1-.63-1.55-.15-3-.33-4.49-.55-8.87-1.32-15.18-3.85-15.76-8.3a25.607,25.607,0,0,1-.21-5.66c.83-10,9-8,9-8-.53-2.76,1.45-11.34,3-17.55,1-3.91,1.87-6.88,1.87-6.88l57.23-3.84h.19a2.81,2.81,0,0,1,2.8,2.95c-.34,6.86-.83,22.58,2,22.93,3.6.45,6.45,3.3,6.88,5.1A21.715,21.715,0,0,1,752.17,817Z" transform="translate(-51.45 -27.31)" fill="#141414"/>
    <path id="Path_61" data-name="Path 61" d="M703.55,741.65s-21.58,26-32,18.79c-.25-.17-.49-.35-.72-.53-7-5.3-8.83-13.82-9.31-18.15-.21-1.88-.51-3.74-.84-5.61-1.45-8.08.76-15.77,1.88-18.95h0c.34-1,.58-1.53.58-1.53C670.38,713.67,703.55,741.65,703.55,741.65Z" transform="translate(-51.45 -27.31)" fill="#141414"/>
    <path id="Path_62" data-name="Path 62" d="M692,744.05s-6.8,4.8-16.39,12.59a34.253,34.253,0,0,1-4.71,3.27c-7-5.3-8.83-13.82-9.31-18.15-.21-1.88-.51-3.74-.84-5.61-1.45-8.08.76-15.77,1.88-18.95h0C676,718.14,692,744.05,692,744.05Z" transform="translate(-51.45 -27.31)" fill="#e4e4e4"/>
    <path id="Path_63" data-name="Path 63" d="M684.57,741.49s-3.63,2.56-8.75,6.72A19.487,19.487,0,0,1,673.3,750c-3.73-2.83-4.71-7.38-5-9.69-.11-1-.27-2-.45-3a20.81,20.81,0,0,1,1-10.11h0C676.05,727.66,684.57,741.49,684.57,741.49Z" transform="translate(-51.45 -27.31)" opacity="0.1"/>
    <path id="Path_64" data-name="Path 64" d="M717.54,741.65s21.59,26,32,18.79l.72-.53c7-5.3,8.82-13.82,9.3-18.15.21-1.88.52-3.74.85-5.61,1.44-8.08-.76-15.77-1.89-18.95h0a16.171,16.171,0,0,0-.59-1.53C750.72,713.67,717.54,741.65,717.54,741.65Z" transform="translate(-51.45 -27.31)" fill="#141414"/>
    <path id="Path_65" data-name="Path 65" d="M729.13,744.05s6.8,4.8,16.39,12.59a34.884,34.884,0,0,0,4.72,3.27c7-5.3,8.82-13.82,9.3-18.15.21-1.88.52-3.74.85-5.61,1.44-8.08-.76-15.77-1.89-18.95h0C745.09,718.14,729.13,744.05,729.13,744.05Z" transform="translate(-51.45 -27.31)" fill="#e4e4e4"/>
    <path id="Path_66" data-name="Path 66" d="M736.58,741.47s3.61,2.55,8.7,6.68a18.592,18.592,0,0,0,2.5,1.74c3.7-2.81,4.68-7.34,4.94-9.63.11-1,.27-2,.44-3a20.8,20.8,0,0,0-1-10.06h0C745.05,727.72,736.58,741.47,736.58,741.47Z" transform="translate(-51.45 -27.31)" opacity="0.1"/>
    <path id="Path_67" data-name="Path 67" d="M740.4,782.08c-2.72,4.31-5.62,8.2-8.27,10.53-8.59,7.59-45.56,4.6-48,4.2-.5-.08-1.55-1.58-2.87-4,1-3.91,1.87-6.88,1.87-6.88Z" transform="translate(-51.45 -27.31)" opacity="0.1"/>
    <path id="Path_68" data-name="Path 68" d="M711.11,739.47c-1.5.11-3,.14-4.51.12-7.73-.13-33.73.21-36.62,10.7-3.4,12.34,11.79,45.52,14.19,45.92s39.37,3.4,48-4.2,19.79-31.37,19.19-33.57C751.32,758.44,762,735.94,711.11,739.47Z" transform="translate(-51.45 -27.31)" fill="#141414"/>
    <path id="Path_69" data-name="Path 69" d="M710.3,759.54s-19-2.93-28,15.81a22.83,22.83,0,0,0,1.68,23c3,4.18,7.33,7.29,13.4,4.78C710.89,797.58,710.3,759.54,710.3,759.54Z" transform="translate(-51.45 -27.31)" opacity="0.1"/>
    <path id="Path_70" data-name="Path 70" d="M709.7,758.34s-19-2.93-28,15.81a22.83,22.83,0,0,0,1.68,23c3,4.18,7.33,7.29,13.4,4.79C710.29,796.38,709.7,758.34,709.7,758.34Z" transform="translate(-51.45 -27.31)" opacity="0.1"/>
    <path id="Path_71" data-name="Path 71" d="M709.7,758.94s-19-2.93-28,15.81a22.83,22.83,0,0,0,1.68,23c3,4.18,7.33,7.29,13.4,4.78C710.29,797,709.7,758.94,709.7,758.94Z" transform="translate(-51.45 -27.31)" fill="#e4e4e4"/>
    <path id="Path_72" data-name="Path 72" d="M689.16,775.32s-2.6,2.4-1.6,3S689.16,775.32,689.16,775.32Z" transform="translate(-51.45 -27.31)" fill="#3f2b3b"/>
    <path id="Path_73" data-name="Path 73" d="M692,778.39s-1.41,3.13-.41,3.48,1.61-2.25,1.61-2.25Z" transform="translate(-51.45 -27.31)" fill="#3f2b3b"/>
    <path id="Path_74" data-name="Path 74" d="M685.68,783.12s-1.38,3.7,0,3.7S685.68,783.12,685.68,783.12Z" transform="translate(-51.45 -27.31)" fill="#3f2b3b"/>
    <path id="Path_75" data-name="Path 75" d="M684,793s2.77,7.1,10,6.6" transform="translate(-51.45 -27.31)" fill="none" stroke="#3f2b3b" stroke-miterlimit="10" stroke-width="1"/>
    <path id="Path_76" data-name="Path 76" d="M690.46,795.11s2.9,2.8,6,.8" transform="translate(-51.45 -27.31)" fill="none" stroke="#3f2b3b" stroke-miterlimit="10" stroke-width="1"/>
    <path id="Path_77" data-name="Path 77" d="M712.7,759.54s19-2.93,28,15.81a22.79,22.79,0,0,1-1.68,23c-3,4.18-7.33,7.29-13.39,4.78C712.1,797.58,712.7,759.54,712.7,759.54Z" transform="translate(-51.45 -27.31)" opacity="0.1"/>
    <path id="Path_78" data-name="Path 78" d="M713.3,758.34s19-2.93,28,15.81a22.79,22.79,0,0,1-1.68,23c-3,4.18-7.33,7.29-13.39,4.79C712.7,796.38,713.3,758.34,713.3,758.34Z" transform="translate(-51.45 -27.31)" opacity="0.1"/>
    <path id="Path_79" data-name="Path 79" d="M713.3,758.94s19-2.93,28,15.81a22.79,22.79,0,0,1-1.68,23c-3,4.18-7.33,7.29-13.39,4.78C712.7,797,713.3,758.94,713.3,758.94Z" transform="translate(-51.45 -27.31)" fill="#e4e4e4"/>
    <path id="Path_80" data-name="Path 80" d="M733.83,775.32s2.6,2.4,1.6,3S733.83,775.32,733.83,775.32Z" transform="translate(-51.45 -27.31)" fill="#3f2b3b"/>
    <path id="Path_81" data-name="Path 81" d="M731,778.39s1.42,3.13.41,3.48-1.61-2.25-1.61-2.25Z" transform="translate(-51.45 -27.31)" fill="#3f2b3b"/>
    <path id="Path_82" data-name="Path 82" d="M737.31,783.12s1.38,3.7,0,3.7S737.31,783.12,737.31,783.12Z" transform="translate(-51.45 -27.31)" fill="#3f2b3b"/>
    <path id="Path_83" data-name="Path 83" d="M739,793s-2.78,7.1-10,6.6" transform="translate(-51.45 -27.31)" fill="none" stroke="#3f2b3b" stroke-miterlimit="10" stroke-width="1"/>
    <path id="Path_84" data-name="Path 84" d="M732.53,795.11s-2.9,2.8-6,.8" transform="translate(-51.45 -27.31)" fill="none" stroke="#3f2b3b" stroke-miterlimit="10" stroke-width="1"/>
    <path id="Path_85" data-name="Path 85" d="M702.45,813.2c.5-.1,10-4.2,19.79,0Z" transform="translate(-51.45 -27.31)" fill="#3f2b3b"/>
    <path id="Path_86" data-name="Path 86" d="M685.25,832.29c-8.87-1.32-15.18-3.85-15.76-8.3a25.607,25.607,0,0,1-.21-5.66,13.088,13.088,0,0,1,3.39-1.24c1.61-.45,3.6-.15,7.8,1s3.9,6.15,4.8,12.59a5,5,0,0,1-.02,1.61Z" transform="translate(-51.45 -27.31)" opacity="0.1"/>
    <path id="Path_87" data-name="Path 87" d="M672.08,817.69s-11.55,2.12-5.3,12.07a4.23,4.23,0,0,0,2.13,1.76c.73.26,1.44.26,1.37-.79l5.09,5.85s10.2,1.2,9.3-5.25-.6-11.39-4.8-12.59S673.68,817.24,672.08,817.69Z" transform="translate(-51.45 -27.31)" fill="#141414"/>
    <path id="Path_88" data-name="Path 88" d="M674.82,824.39s2.45,5.6,5.85.9" transform="translate(-51.45 -27.31)" fill="none" stroke="#3f2b3b" stroke-miterlimit="10" stroke-width="1"/>
    <path id="Path_89" data-name="Path 89" d="M669.21,826.59s1.27,5.28,6.06,1.34" transform="translate(-51.45 -27.31)" fill="none" stroke="#3f2b3b" stroke-miterlimit="10" stroke-width="1"/>
    <path id="Path_90" data-name="Path 90" d="M752.17,817h0c-.38,5.27-1.4,13.73-1.4,13.73s-4.24.52-10.79,1.11a6.063,6.063,0,0,1,0-1.11c.9-6.44.6-11.39,4.8-12.59C748.64,817.05,750.64,816.7,752.17,817Z" transform="translate(-51.45 -27.31)" opacity="0.1"/>
    <path id="Path_91" data-name="Path 91" d="M753.22,817.69s11.54,2.12,5.3,12.07a4.3,4.3,0,0,1-2.14,1.76c-.73.26-1.44.26-1.36-.79l-5.1,5.85s-10.19,1.2-9.29-5.25.6-11.39,4.79-12.59S751.61,817.24,753.22,817.69Z" transform="translate(-51.45 -27.31)" fill="#141414"/>
    <path id="Path_92" data-name="Path 92" d="M750.47,824.39s-2.45,5.6-5.85.9" transform="translate(-51.45 -27.31)" fill="none" stroke="#3f2b3b" stroke-miterlimit="10" stroke-width="1"/>
    <path id="Path_93" data-name="Path 93" d="M756.09,826.59s-1.27,5.28-6.07,1.34" transform="translate(-51.45 -27.31)" fill="none" stroke="#3f2b3b" stroke-miterlimit="10" stroke-width="1"/>
    <path id="Path_94" data-name="Path 94" d="M700.84,833.47c-3.87-.09-7.62-.29-11.1-.63l-3.45-11.64a7.4,7.4,0,1,1,14.49-2.2C700.81,823.57,700.85,829.31,700.84,833.47Z" transform="translate(-51.45 -27.31)" opacity="0.1"/>
    <path id="Path_95" data-name="Path 95" d="M685.69,821.2l4.07,13.73s-6.93-.15-5,4.2c0,0,1.74,1.65,2.34,1,0,0-.89,2.85,2.7,2.85,0,0,3.89,2.09,5.39.6s4.66-3.75,5-4.65c.19-.59.13-12.07.07-20a7.4,7.4,0,0,0-7.4-7.33h0a7.39,7.39,0,0,0-7.17,9.6Z" transform="translate(-51.45 -27.31)" fill="#141414"/>
    <path id="Path_96" data-name="Path 96" d="M691.19,838.48s-3,2.9-1.43,4.55" transform="translate(-51.45 -27.31)" fill="none" stroke="#3f2b3b" stroke-miterlimit="10" stroke-width="1"/>
    <path id="Path_97" data-name="Path 97" d="M689.86,836.67s-2.8.91-2.8,3.51" transform="translate(-51.45 -27.31)" fill="none" stroke="#3f2b3b" stroke-miterlimit="10" stroke-width="1"/>
    <path id="Path_98" data-name="Path 98" d="M739.12,819.09a7.439,7.439,0,0,1-.31,2.11l-3.27,11c-3.42.27-7.24.54-11.28.77,0-4.11,0-9.59.06-14a7.4,7.4,0,1,1,14.8.06Z" transform="translate(-51.45 -27.31)" opacity="0.1"/>
    <path id="Path_99" data-name="Path 99" d="M739.4,821.2l-4.07,13.73s6.93-.15,5,4.2c0,0-1.74,1.65-2.34,1,0,0,.9,2.85-2.7,2.85,0,0-3.88,2.09-5.39.6s-4.65-3.75-5-4.65c-.2-.59-.14-12.07-.07-20a7.39,7.39,0,0,1,7.39-7.33h0a7.39,7.39,0,0,1,7.18,9.6Z" transform="translate(-51.45 -27.31)" fill="#141414"/>
    <path id="Path_100" data-name="Path 100" d="M733.9,838.48s3,2.9,1.43,4.55" transform="translate(-51.45 -27.31)" fill="none" stroke="#3f2b3b" stroke-miterlimit="10" stroke-width="1"/>
    <path id="Path_101" data-name="Path 101" d="M735.23,836.67s2.8.91,2.8,3.51" transform="translate(-51.45 -27.31)" fill="none" stroke="#3f2b3b" stroke-miterlimit="10" stroke-width="1"/>
    <path id="Path_102" data-name="Path 102" d="M709.7,755.94s-14.09-.45-14.54,10.49,22,6.3,22,6.3,9.45-1.27,7.8-7.91S719.9,756.54,709.7,755.94Z" transform="translate(-51.45 -27.31)" opacity="0.1"/>
    <path id="Path_103" data-name="Path 103" d="M709.7,754.74s-14.09-.45-14.54,10.49,22,6.3,22,6.3,9.45-1.27,7.8-7.91S719.9,755.34,709.7,754.74Z" transform="translate(-51.45 -27.31)" opacity="0.1"/>
    <path id="Path_104" data-name="Path 104" d="M709.7,755.34s-14.09-.45-14.54,10.49,22,6.3,22,6.3,9.45-1.27,7.8-7.91S719.9,755.94,709.7,755.34Z" transform="translate(-51.45 -27.31)" fill="#3f2b3b"/>
    <path id="Path_105" data-name="Path 105" d="M678.25,810.35s4.72,1.7,5.68,4.94" transform="translate(-51.45 -27.31)" opacity="0.1"/>
    <path id="Path_106" data-name="Path 106" d="M745.37,808s-3.38,1.42-3.15,7.34" transform="translate(-51.45 -27.31)" opacity="0.1"/>
    <ellipse id="Ellipse_1" data-name="Ellipse 1" cx="2.2" cy="3.64" rx="2.2" ry="3.64" transform="translate(623.08 802.481) rotate(-30)" fill="#eec5cd"/>
    <ellipse id="Ellipse_2" data-name="Ellipse 2" cx="3.653" cy="2.208" rx="3.653" ry="2.208" transform="translate(695.367 803.628) rotate(-60.113)" fill="#eec5cd"/>
    <path id="Path_107" data-name="Path 107" d="M682.31,433.41c-3.25-1.06-22.38-15.89-23.82-22.6s10.1-69.2,10.1-69.2-1.06-.05-2.76-.21v-1l2.37-82.11s9.74-55.07-8.66-51.9-6.86,51.9-6.86,51.9-2.1,24.72-3.57,32.14c-1.43,7.14-7.85,36.26-3.46,45.31a6.881,6.881,0,0,0,.54.93h0s.72,31.06-7.22,35.3c-7.58,4-10.73,24.36-11,26.19l-.4-.18h0a22.071,22.071,0,0,1-5.88-5.24c-.15-.21-.29-.44-.44-.66a29.86,29.86,0,0,0-.83-41.14l-.75-.73A5.259,5.259,0,0,0,621,348c1.4-4.22-3.44-7.61-5.95-10.25C609.24,331.57,604,324,595.9,320.5a32.35,32.35,0,0,1,6.4,4.76,27.312,27.312,0,0,0-8.27-4.9c-8.48-3-18.24-.52-25.64,4.54s-12.87,12.35-17.87,19.7l-2.42,3.6a58.928,58.928,0,0,0-6.9-6.59c-4.69-3.53-14.07-15.18-14.07-15.18s-29.23-29.66-31.4-37.78-31.39-56.85-37.89-48.37,22.37,45.54,22.37,45.54,5.42,13.42,9.75,18,36.44,50.49,36.44,50.49l2.72,5.5.51,1-.34-.19v6.71l3,.27a28.443,28.443,0,0,0-3.64,3.89,25.1,25.1,0,0,0-3.58,7.77c-4.73,15.63-2.8,32.74,3.3,47.91,1.26,3.12,2.7,6.23,3.08,9.56.55,4.66-1,9.27-1.94,13.88-1.3,6.47-1.25,13.52,2,19.29,4.35,7.66,14.1,11.65,22.94,10.22a26,26,0,0,0,11.14-4.74,29.69,29.69,0,0,0,9.71-11.28c1.65-3.37,2.68-7,4.32-10.38.31-.65.66-1.27,1-1.9,3.74,4.19,7.1,8,7.1,8s7.94,38.13,1.08,48.72a65.31,65.31,0,0,1-13.11,14.12,25.581,25.581,0,0,0-3.49,3.49c-.68.49-1.08.75-1.08.75s-.18.51-.44,1.29a23.578,23.578,0,0,0-3.44,7.79,5.141,5.141,0,0,0-.26,2.22c.49,1-3.53,5-2.35,6.71-10,11.5-11.92,28.94-11.92,28.94l-18.23,27.19c-9.38,24.18-23.45,26.66-23.45,26.66s-33-21.72-33.93-22.78-13.53-6.35-13.53-6.35a14.17,14.17,0,0,0-6.49-5.83c-4.33-1.76-4.69-8.29-4.69-8.29-.54-15.36-9.75-16.6-9.75-16.6-7.42-.61-13.1.68-17.45,3.05l-1.32.1c-6.39.51-14.09,1.07-22.55,1.62-23.47,1.52-29.05,16.42-29.05,16.42s-2.89,3.17.9,6.61,28,.06,29-.08a15.69,15.69,0,0,1-5.51-.37c3.82-.14,9.06-.27,13.52-.28h1.09a55.344,55.344,0,0,0-.4,7c0,4.42,12.45,7.24,12.45,7.24l37.89,33s23.82,10.42,39,25.42,28.51,2.12,28.51,2.12c16-3.88,62.21-58.55,62.25-58.6h0c0,1.68,1,54.77,2.84,65.44h0a7,7,0,0,0,.4,1.58c2.17,4.6-.72,17.13-2,22.43s-.91,13.41-.91,13.41-17.3,64.92-15.81,70.57-9.39,32.13-9.39,32.13v22.06s.69,0,1.89-.09a10.419,10.419,0,0,0-.68,1.09,2.01,2.01,0,0,0-.12.24s11.54,2.47,19.3,1.76,21.11,5.87,21.11,5.87,4.52,2.08,18.41,3,13.89-6,13.89-6c-1.6-9.39-23.53-12.52-24.22-12.61-1.77-1.09-3.43-2.28-4.79-3.3l-.29-.23a3.444,3.444,0,0,0,.25-.63c2.35-9.36-10.64-13.42-10.64-13.42v-2.29c8.47-4.24,10.1-33.37,10.1-33.37s12.63-36,14.43-42,0-15,0-15l1.27-7.76s2.7-5.3,2.7-6.36a15.561,15.561,0,0,1,3.07-7.41c2-2.3-2.16-7.77-2.16-7.77l3.61-9.18V673.14l8.47-36.54s8.85-42.55,5.78-56.5,3.61-21,3.61-21a18.669,18.669,0,0,1-1.86.83,50.143,50.143,0,0,0,2.19-5.87l19,2.31v.27h6.85s-2.16-26.13-2.16-36.72,7.22-48.37,7.22-48.37S685.55,434.47,682.31,433.41Zm-84.26-31v.43c0,1-.1,2.11-.17,3.2l-.38.58-.69-.59-.87,1.31h0a5.11,5.11,0,0,1,1.48-4.6,5.444,5.444,0,0,1,.63-.32Zm63.12,122.33h.42l-.68,1.72c.09-.56.17-1.13.26-1.71Zm-69.31,312.4-2.59-.63,1.44-.24,1.3.85.16.1Zm26.44-3.7c-.86-.45-1.73-1-2.57-1.48C616,832.11,617.11,832.68,618.3,833.44Z" transform="translate(-51.45 -27.31)" fill="url(#linear-gradient-2)"/>
    <path id="Path_108" data-name="Path 108" d="M616.03,471l-16.55,43.12-2.32-1.9-9.22,14.31,28.09,3.5Z" fill="#f1d2d7"/>
    <path id="Path_109" data-name="Path 109" d="M616.01,471l-16.56,43.12L595.29,513l-7.38,13.53,28.1,3.5Z" opacity="0.1"/>
    <path id="Path_110" data-name="Path 110" d="M590.09,498.59h25.94l9.52-78.36H590.09Z" fill="#f1d2d7"/>
    <path id="Path_111" data-name="Path 111" d="M590.09,498.59h25.94l9.52-78.36H590.09Z" opacity="0.1"/>
    <path id="Path_112" data-name="Path 112" d="M590.87,466.1l5.59-1,12.87-2.1s38.65-8.7,46.66-9.4c5-.44,10.53-2.5,14-4,2.09-.89,3.42-1.58,3.42-1.58l-13.92-25.43-21.6-16s-13.66-2.91-19.45-10.86a12.84,12.84,0,0,1-1.79-12.13c3.53-10.94-21.06,10.45-21.06,10.45s.24,5.12,0,11.65c0,1.29-.12,2.63-.21,4-.06.9-.14,1.8-.22,2.72-.61,6.48-1.84,13.16-4.26,17.15C585,439.28,590.87,466.1,590.87,466.1Z" transform="translate(-51.45 -27.31)" fill="#bebebe"/>
    <path id="Path_113" data-name="Path 113" d="M595.57,406.19h.54c1,0,1.77-2.08,2.73-2.18,7.69-.74,14.71-2.35,19.59-7.79a12.87,12.87,0,0,1-1.79-12.13c3.53-10.94-21,10.44-21,10.44S595.83,399.65,595.57,406.19Z" transform="translate(-51.45 -27.31)" opacity="0.1"/>
    <path id="Path_114" data-name="Path 114" d="M565.64,375.2a30,30,0,0,0,30,29.95,28.242,28.242,0,0,0,2.92-.15,29.95,29.95,0,1,0-32.87-29.8Z" transform="translate(-51.45 -27.31)" fill="#bebebe"/>
    <path id="Path_115" data-name="Path 115" d="M565.64,375.2a30,30,0,0,0,30,29.95,28.242,28.242,0,0,0,2.92-.15,3.64,3.64,0,0,0,1.38-1,4.41,4.41,0,0,0,.54-3.65c-1.18-5.85-6.49-10.05-8.4-15.71-1.68-5-.42-10.67,2.16-15.29s6.39-8.43,10.15-12.17a6.18,6.18,0,0,1,2.32-1.68c3.2-1,8,1.8,10.54-1.06a30,30,0,0,0-51.56,20.74Z" transform="translate(-51.45 -27.31)" opacity="0.1"/>
    <path id="Path_116" data-name="Path 116" d="M605.61,355a6.07,6.07,0,0,0-2.32,1.68c-3.75,3.74-7.56,7.54-10.14,12.17s-3.84,10.26-2.16,15.28c1.9,5.67,7.22,9.87,8.39,15.72a4.39,4.39,0,0,1-.54,3.64c-1,1.25-2.9,1.32-4.2,2.26-1.66,1.21-2,3.61-1.5,5.6a23.849,23.849,0,0,0,2.75,5.48c2.8,4.95,4,11.39,1,16.2a25.738,25.738,0,0,1-5,5.21,76.785,76.785,0,0,0-8.72,9.13,45,45,0,0,0-5.82,8.9c-1.58,3.33-2.58,6.92-4.17,10.25-3.73,7.79-11.07,14-19.6,15.41s-17.94-2.53-22.13-10.08c-3.16-5.7-3.2-12.65-1.95-19,.89-4.54,2.4-9.09,1.88-13.69-.38-3.28-1.77-6.35-3-9.43-5.88-15-7.75-31.84-3.19-47.26a25.19,25.19,0,0,1,3.46-7.67,46.545,46.545,0,0,1,5.46-5.69c6.23-6.09,10.82-13.62,15.65-20.87S559.85,333.79,567,328.8s16.56-7.46,24.74-4.47c8.56,3.13,13.85,11.11,19.79,17.53,2.41,2.62,7.09,5.95,5.74,10.12C615.3,357.86,609.36,353.82,605.61,355Z" transform="translate(-51.45 -27.31)" fill="#493545"/>
    <path id="Path_117" data-name="Path 117" d="M552,480.5c8.52-1.41,15.86-7.62,19.59-15.42,1.6-3.32,2.59-6.91,4.18-10.24a45,45,0,0,1,5.81-8.9,77.772,77.772,0,0,1,8.73-9.14,25.441,25.441,0,0,0,5-5.21c3-4.81,1.85-11.25-.94-16.19a24.357,24.357,0,0,1-2.76-5.49c-.52-2-.16-4.39,1.5-5.59,1.31-.94,3.19-1,4.21-2.26a4.389,4.389,0,0,0,.54-3.64c-1.18-5.86-6.5-10.05-8.4-15.72-1.68-5-.43-10.66,2.16-15.29s6.38-8.41,10.1-12.17a6.16,6.16,0,0,1,2.33-1.67c3.74-1.18,9.69,2.86,11.61-3.05,1.35-4.17-3.33-7.51-5.74-10.12-5.11-5.53-9.75-12.21-16.41-16,7.81,3.42,12.87,10.91,18.5,17,2.41,2.61,7.09,5.94,5.74,10.11-1.92,5.91-7.87,1.87-11.61,3.05a6.18,6.18,0,0,0-2.33,1.68c-3.75,3.74-7.55,7.54-10.14,12.17s-3.84,10.26-2.16,15.29c1.9,5.66,7.22,9.86,8.4,15.71a4.39,4.39,0,0,1-.54,3.64c-1,1.25-2.91,1.32-4.21,2.27-1.66,1.2-2,3.6-1.5,5.59a23.487,23.487,0,0,0,2.76,5.48c2.79,4.95,4,11.39.94,16.2a25.691,25.691,0,0,1-5,5.21,78.467,78.467,0,0,0-8.73,9.13,45.251,45.251,0,0,0-5.81,8.9c-1.59,3.34-2.58,6.92-4.18,10.25-3.73,7.79-11.07,14-19.59,15.41a22.59,22.59,0,0,1-14.63-2.66A22.56,22.56,0,0,0,552,480.5Z" transform="translate(-51.45 -27.31)" opacity="0.1"/>
    <path id="Path_118" data-name="Path 118" d="M583.73,830l5.23,3.45.79.53.16.11,6.19,4.09,14.44,2.44,12.72-.87s3.66-7.66-2.09-7.49a12,12,0,0,1-5.26-1.5l-.78-.41h0c-.83-.44-1.67-.93-2.48-1.45h0c-1.7-1.08-3.31-2.25-4.62-3.26-1.9-1.47-3.17-2.59-3.17-2.59Z" transform="translate(-51.45 -27.31)" fill="#ffbec7"/>
    <path id="Path_119" data-name="Path 119" d="M589,833.47l.79.53.16.11,6.19,4.09,14.44,2.44,12.72-.87s3.66-7.66-2.09-7.49a12,12,0,0,1-5.26-1.5,4.6,4.6,0,0,1,2,2.37c.23,2-9.4,5.5-9.4,5.5l-13.59-3.59s-2.31-.65-5.48-1.47l-.3-.08Z" transform="translate(-51.45 -27.31)" opacity="0.1"/>
    <path id="Path_120" data-name="Path 120" d="M565.8,836.81s11.14,2.43,18.63,1.74,20.37,5.78,20.37,5.78,4.36,2,17.76,2.93S636,841.33,636,841.33c-1.54-9.25-22.71-12.35-23.38-12.43h0c.27.14,1.34.71,2.48,1.45h0c1.5,1,3.13,2.27,3.25,3.3.23,2-9.4,5.5-9.4,5.5l-13.58-3.58s-2.31-.66-5.49-1.48l-.3-.08a117.6,117.6,0,0,0-14.24-3c-5.85-.62-8.85,4.36-9.46,5.51A2.794,2.794,0,0,1,565.8,836.81Z" transform="translate(-51.45 -27.31)" fill="#8a8a8a"/>
    <path id="Path_121" data-name="Path 121" d="M390.28,591.12l5.92,4.53s1.72-.08,4.28-.17h.82c3.68-.13,8.74-.26,13.05-.27,4,0,7.32.12,8.32.47,3,1,8.18-16.89,8.18-16.89l-5.94-1.4-2-.46-1.38-.32-4.82-1.13-14.63,1.65-10.27,6.62Z" transform="translate(-51.45 -27.31)" fill="#ffbec7"/>
    <path id="Path_122" data-name="Path 122" d="M390.28,591.12l5.92,4.53s1.72-.08,4.28-.17a5.18,5.18,0,0,1-2.71-2.45c-3.83-10.62,15.15-15.14,15.15-15.14l8.84-.39,1.71-.07,1.44-.07-2-.46-1.38-.32-4.82-1.13-14.63,1.65-10.27,6.62Z" transform="translate(-51.45 -27.31)" opacity="0.1"/>
    <path id="Path_123" data-name="Path 123" d="M378.61,595.9c3.58,3.32,27,.06,28-.08a14.629,14.629,0,0,1-5.32-.37c-3.27-.92-4.06-2.94-4.06-2.94-3.82-10.62,15.15-15.15,15.15-15.15l8.85-.38,1.71-.08,21.48-.93,1.05-5.92s-7,.67-17.94,1.54c-6.17.5-13.61,1.06-21.76,1.59-22.65,1.5-28,16.2-28,16.2S375,592.51,378.61,595.9Z" transform="translate(-51.45 -27.31)" fill="#8a8a8a"/>
    <path id="Path_124" data-name="Path 124" d="M641.55,339.46a7.311,7.311,0,0,0,.51.92l5.23,7.66,13.58,1.4.15-5.38,2.28-81s9.41-54.33-8.35-51.19-6.62,51.19-6.62,51.19-2,24.38-3.45,31.69C643.51,301.81,637.31,330.53,641.55,339.46Z" transform="translate(-51.45 -27.31)" fill="#bebebe"/>
    <path id="Path_125" data-name="Path 125" d="M611.07,540.62l3.86,6.62,8.65,14.8s15.7,5.75,19.7,1.39c2.21-2.4,4.58-10.73,6.25-17.72,1.37-5.69,2.28-10.49,2.28-10.49Z" transform="translate(-51.45 -27.31)" fill="#ffbec7"/>
    <path id="Path_126" data-name="Path 126" d="M611.07,540.62l3.86,6.62a4.944,4.944,0,0,0,.67-.7c4.36-5.58,23.61-1.18,33.93-.83,1.37-5.69,2.28-10.49,2.28-10.49Z" transform="translate(-51.45 -27.31)" opacity="0.1"/>
    <path id="Path_127" data-name="Path 127" d="M414.35,595.18c4,0,7.32.12,8.32.47,3,1,8.18-16.89,8.18-16.89L423,576.9l21.48-.93,1.05-5.92s-7,.67-17.94,1.54a22.168,22.168,0,0,0-6,5l-.33.4C416.69,582.6,415,589.84,414.35,595.18Z" transform="translate(-51.45 -27.31)" opacity="0.1"/>
    <path id="Path_128" data-name="Path 128" d="M583.73,830l6,4c9-1.62,17.21-4.17,18.18-8.16a1.778,1.778,0,0,0,0-.2c-1.9-1.47-3.17-2.59-3.17-2.59Z" transform="translate(-51.45 -27.31)" opacity="0.1"/>
    <path id="Path_129" data-name="Path 129" d="M565.91,836.57a204.866,204.866,0,0,0,23.7-2.54,117.582,117.582,0,0,0-14.24-3C569.52,830.44,566.52,835.42,565.91,836.57Z" transform="translate(-51.45 -27.31)" opacity="0.1"/>
    <path id="Path_130" data-name="Path 130" d="M415,602.09c0,4.35,12,7.14,12,7.14l36.57,32.56s23,10.27,37.61,25.07S528.71,669,528.71,669c15.49-3.83,60.07-57.81,60.07-57.81s1.05,61.64,3.14,66.17-.7,16.89-1.92,22.12-.87,13.23-.87,13.23-16.72,63.9-15.32,69.47-9.06,31.69-9.06,31.69v21.77s40.92-1.57,43.18-10.8-10.27-13.23-10.27-13.23V809.3c8.18-4.18,9.75-32.91,9.75-32.91S619.6,740.86,621.34,735s0-14.81,0-14.81l1.22-7.66s2.61-5.22,2.61-6.26a15.56,15.56,0,0,1,3-7.32c1.92-2.26-2.09-7.66-2.09-7.66l3.49-9v-9.93l8.18-36s8.53-42,5.57-55.72,3.49-20.73,3.49-20.73c-14,7.34-21-9-23.33-16-.6-1.81-.88-3-.88-3s-19.19-7.08-37.07-5.4a43.553,43.553,0,0,0-10.64,2.26c-19.85,7.14-23,36.74-23,36.74L534.3,601.33c-9,23.85-22.64,26.29-22.64,26.29s-31.86-21.42-32.73-22.46-13.06-6.27-13.06-6.27a13.82,13.82,0,0,0-6.27-5.75c-4.18-1.74-4.52-8.18-4.52-8.18-.53-15.15-9.41-16.37-9.41-16.37C414.83,565.87,415,597.74,415,602.09Z" transform="translate(-51.45 -27.31)" fill="#171717"/>
    <rect id="Rectangle_1" data-name="Rectangle 1" width="18.81" height="58.33" transform="translate(559.62 489.63) rotate(180)" fill="#f1d2d7"/>
    <rect id="Rectangle_2" data-name="Rectangle 2" width="18.81" height="58.33" transform="translate(557.88 487.24) rotate(180)" opacity="0.1"/>
    <path id="Path_131" data-name="Path 131" d="M641.54,339.33a1.185,1.185,0,0,0,0,.13,7.3,7.3,0,0,0,.51.92l5.23,7.66,13.58,1.4.15-5.38C656.77,343.69,647.13,342.53,641.54,339.33Z" transform="translate(-51.45 -27.31)" opacity="0.1"/>
    <path id="Path_132" data-name="Path 132" d="M642.06,340.38s.7,30.64-7,34.82-10.64,26-10.64,26,23.18,15.28,28.4,22,17.06,22.73,14.63,26.56S673.41,471,673.41,471s-15.33,31.35-11.84,43.19,3.83,43.18,3.83,43.18H672s-2.09-25.77-2.09-36.22,7-47.71,7-47.71,3.13-36.57,0-37.61-21.59-15.67-23-22.29,9.75-68.26,9.75-68.26S649.38,344.56,642.06,340.38Z" transform="translate(-51.45 -27.31)" fill="#f1d2d7"/>
    <path id="Path_133" data-name="Path 133" d="M591.92,453.21a29.67,29.67,0,0,0,4.54,11.94L609.33,463s38.65-8.7,46.66-9.4c5-.44,10.53-2.5,14-4a61.549,61.549,0,0,0-17.29-28.34l-4.91-4.55a83.23,83.23,0,0,0-24.72-15.82c.57.49,41.12,35.11,32.24,41.9S622.54,433,622.54,433l-27.19-23.36-1-.85-1.58,2.44a23.618,23.618,0,0,1,2.35,1.13,40,40,0,0,1,19.07,23.77C619.8,454.93,591.92,453.21,591.92,453.21Z" transform="translate(-51.45 -27.31)" opacity="0.1"/>
    <path id="Path_134" data-name="Path 134" d="M583.56,540.27s25.77,14.28,32,6.27c1.38-1.76,4.24-2.53,7.84-2.74-.6-1.81-.88-3-.88-3s-19.19-7.08-37.07-5.4C584.3,538.37,583.56,540.27,583.56,540.27Z" transform="translate(-51.45 -27.31)" opacity="0.1"/>
    <path id="Path_135" data-name="Path 135" d="M595.41,408.81,623.58,433s23.82,16.6,32.76,9.76-32.24-41.91-32.24-41.91h0a83,83,0,0,1,24.73,15.82l4.91,4.55c12.9,11.95,15.81,11.95,16.24,29.53.11,4.32-1.36,10.54-2.49,11.67-4.18,4.14-7.12,33.86-6.47,37.34s-7.81,33.54-5,41.9-34.12-4.18-40.39,3.83-32-6.27-32-6.27,14.28-36.57,17.76-39,7.66-21.25,0-30S593,453.21,593,453.21s27.88,1.73,22.29-17.06a39.45,39.45,0,0,0-21.42-24.9Z" transform="translate(-51.45 -27.31)" fill="#e8e8f0"/>
    <path id="Path_136" data-name="Path 136" d="M633,470.45s-10.8,20.38-24.79,25.67c-.44.16-.88.31-1.33.45C592.26,501,634.05,476.72,633,470.45Z" transform="translate(-51.45 -27.31)" opacity="0.1"/>
    <path id="Path_137" data-name="Path 137" d="M481.87,290.23s5.22,13.24,9.4,17.76,35.17,49.8,35.17,49.8l2.63,5.43,2.25,4.67,19.85-2.09,1.39-8-.76-.93c-2-2.39-7.43-8.81-11.08-11.61-4.52-3.48-13.58-15-13.58-15S498.93,301,496.85,293s-30.3-56.07-36.57-47.71S481.87,290.23,481.87,290.23Z" transform="translate(-51.45 -27.31)" fill="#bebebe"/>
    <path id="Path_138" data-name="Path 138" d="M529.07,363.22l2.25,4.67,19.85-2.09,1.39-8-.76-.93C549.66,357.92,533.79,365.53,529.07,363.22Z" transform="translate(-51.45 -27.31)" opacity="0.1"/>
    <path id="Path_139" data-name="Path 139" d="M602.36,415.6s-4.87-7.66-7.66-5.57-3.87-6.27-5.42-4.88-6.25,5.28-8.16-.16c-1.52-4.32-18-31.62-24.72-42.62l-2.79-4.58s-18.81,9.41-23.33,6.27v6.62l3.83.35,20.54,38.3s6.46,10.25,6,13.84,8.26,19.25,9.65,20.29,16.37,18.46,16.37,18.46,7.66,37.61,1,48.06-18.11,18.11-18.11,18.11-3.45,10.09-3,11.14-4,5.57-1.93,7,4.88,11.15,4.88,11.15,9.75-15.67,15-18.11,12-34.48,12-34.48,1.92-18.89,2.08-31.08S598.18,415.6,602.36,415.6Z" transform="translate(-51.45 -27.31)" opacity="0.1"/>
    <path id="Path_140" data-name="Path 140" d="M601.32,415.6s-4.88-7.66-7.66-5.57-3.87-6.27-5.42-4.88-6.25,5.28-8.16-.16c-1.53-4.32-18-31.62-24.72-42.62-1.72-2.83-2.8-4.58-2.8-4.58s-18.8,9.41-23.33,6.27v6.62l3.83.35,20.55,38.3s6.45,10.25,6,13.84,8.27,19.25,9.66,20.29,16.37,18.46,16.37,18.46,7.66,37.61,1,48.06A63.77,63.77,0,0,1,574,523.9a24.439,24.439,0,0,0-8.16,13.15,5.16,5.16,0,0,0-.24,2.18c.51,1-4,5.57-1.93,7s4.87,11.15,4.87,11.15,9.75-15.67,15-18.11,12-34.48,12-34.48,1.91-18.89,2.07-31.08S597.14,415.6,601.32,415.6Z" transform="translate(-51.45 -27.31)" fill="#f1d2d7"/>
    <path id="Path_141" data-name="Path 141" d="M553.61,574.05s14.63,2.79,20.55,7-22.29-6.62-22.29-6.62Z" transform="translate(-51.45 -27.31)" opacity="0.1"/>
    <path id="Path_142" data-name="Path 142" d="M588.78,611.14s15.32,12.71,12.54,24.21-9.8,40.4-9.8,40.4Z" transform="translate(-51.45 -27.31)" opacity="0.1"/>
    <path id="Path_143" data-name="Path 143" d="M455.32,586.68s-21.51,2.35-20.12,5.13,20.12-2.56,20.12-2.56Z" transform="translate(-51.45 -27.31)" opacity="0.1"/>
    <path id="Path_144" data-name="Path 144" d="M620.47,692.46s1.4,1.74-6.61,0-2.09-7.1-2.09-7.1Z" transform="translate(-51.45 -27.31)" opacity="0.1"/>
    <path id="Path_145" data-name="Path 145" d="M617.69,716.49s-11,1.74-16.81,0S617.69,716.49,617.69,716.49Z" transform="translate(-51.45 -27.31)" opacity="0.1"/>
    <path id="Path_146" data-name="Path 146" d="M595.22,810.51s-1.91-2.09-11.49,1.75-13.41,4-16.19,2.78S595.22,810.51,595.22,810.51Z" transform="translate(-51.45 -27.31)" opacity="0.1"/>
    <path id="Path_147" data-name="Path 147" d="M605.85,583.72l-13.59,18.89S599.58,586.07,605.85,583.72Z" transform="translate(-51.45 -27.31)" opacity="0.1"/>
    <path id="Path_148" data-name="Path 148" d="M579.38,410s-.58,6.27-9.34,8.71-10.42,4.43-10.42,4.43" transform="translate(-51.45 -27.31)" opacity="0.1"/>
    <path id="Path_149" data-name="Path 149" d="M556.69,364.56s-11.55,8.22-23.63,6.47" transform="translate(-51.45 -27.31)" opacity="0.1"/>
    <path id="Path_150" data-name="Path 150" d="M565.49,540.1s3.38,2.12,11.48-7.15" transform="translate(-51.45 -27.31)" opacity="0.1"/>
    <path id="Path_151" data-name="Path 151" d="M649.64,441.87c.33-1.69-.85-3.27-2-4.59l-2.27-2.71a10.709,10.709,0,0,0-1.48-1.53c-1.34-1.05-3.12-1.37-4.54-2.31" transform="translate(-51.45 -27.31)" opacity="0.1"/>
    <path id="Path_152" data-name="Path 152" d="M633.78,75.92H484.83a19.05,19.05,0,0,0-19.16,18.94V242.15a19.05,19.05,0,0,0,19.16,18.94h149a19.05,19.05,0,0,0,19.16-18.94V94.86a19.05,19.05,0,0,0-19.21-18.94Z" transform="translate(-51.45 -27.31)" fill="url(#linear-gradient-3)"/>
    <path id="Path_161" data-name="Path 161" d="M18.95,0H166.23a18.95,18.95,0,0,1,18.95,18.95V166.23a18.95,18.95,0,0,1-18.95,18.95H18.95A18.95,18.95,0,0,1,0,166.23V18.95A18.95,18.95,0,0,1,18.95,0Z" transform="translate(415.58 48.61)" fill="#777"/>
    <path id="Path_153" data-name="Path 153" d="M527.79,194.21a11,11,0,1,0,7.77,3.22A10.67,10.67,0,0,0,527.79,194.21Z" transform="translate(-51.45 -27.31)" fill="#eaeaf3"/>
    <path id="Path_154" data-name="Path 154" d="M525.34,171a12.29,12.29,0,1,0-3.6,8.65,11.78,11.78,0,0,0,3.6-8.65Z" transform="translate(-51.45 -27.31)" fill="#eaeaf3"/>
    <path id="Path_155" data-name="Path 155" d="M596.35,142.79A6.13,6.13,0,1,0,592,141,5.91,5.91,0,0,0,596.35,142.79Z" transform="translate(-51.45 -27.31)" fill="#eaeaf3"/>
    <path id="Path_156" data-name="Path 156" d="M527.79,123.21a13.45,13.45,0,1,0,9.53,3.94A13,13,0,0,0,527.79,123.21Z" transform="translate(-51.45 -27.31)" fill="#eaeaf3"/>
    <path id="Path_157" data-name="Path 157" d="M616.25,165.75a7.4,7.4,0,1,0,2.14,5.2,7.09,7.09,0,0,0-2.14-5.2Z" transform="translate(-51.45 -27.31)" fill="#eaeaf3"/>
    <path id="Path_158" data-name="Path 158" d="M596.35,196.66a8.62,8.62,0,1,0,6,2.53,8.28,8.28,0,0,0-6-2.53Z" transform="translate(-51.45 -27.31)" fill="#eaeaf3"/>
    <path id="Path_159" data-name="Path 159" d="M562.07,210.13A9.8,9.8,0,1,0,569,213a9.48,9.48,0,0,0-6.93-2.87Z" transform="translate(-51.45 -27.31)" fill="#eaeaf3"/>
    <path id="Path_160" data-name="Path 160" d="M562.07,107.29a14.61,14.61,0,1,0,10.41,4.28,14.2,14.2,0,0,0-10.41-4.28Z" transform="translate(-51.45 -27.31)" fill="#eaeaf3"/>
  </g>
</svg>
