<svg width="1083" height="593" viewBox="0 0 1083 593" fill="none" xmlns="http://www.w3.org/2000/svg">
<g filter="url(#filter0_d)">
<g clip-path="url(#clip0)">
<path d="M544.643 584.231C835.974 584.231 1072.14 568.596 1072.14 549.309C1072.14 530.023 835.974 514.388 544.643 514.388C253.313 514.388 17.1434 530.023 17.1434 549.309C17.1434 568.596 253.313 584.231 544.643 584.231Z" fill="#F2F2F2"/>
<path d="M524.426 167.01C438.482 167.01 376.775 222.149 376.775 350.808C376.775 496.621 438.482 535.218 524.426 535.218C610.37 535.218 675.753 492.945 675.753 350.808C675.753 198.868 610.37 167.01 524.426 167.01ZM524.991 486.818C465.464 486.818 434.365 451.895 434.365 350.902C434.365 261.79 466.737 214.797 526.264 214.797C585.791 214.797 618.163 245.665 618.163 350.902C618.163 449.349 584.517 486.818 524.991 486.818Z" fill="#2F2E41"/>
<path d="M325.311 433.517H289.777V328.877C289.777 323.32 287.569 317.989 283.639 314.059C279.709 310.129 274.379 307.922 268.821 307.922H260.495C257.743 307.922 255.018 308.464 252.475 309.517C249.933 310.57 247.623 312.113 245.677 314.059C243.731 316.005 242.187 318.315 241.134 320.858C240.081 323.4 239.539 326.125 239.539 328.877V433.517H139.309C137.247 433.517 135.22 432.984 133.425 431.97C131.629 430.955 130.127 429.494 129.062 427.728C127.998 425.962 127.408 423.951 127.35 421.89C127.292 419.829 127.768 417.788 128.731 415.965L234.814 215.184C236.136 212.681 236.938 209.936 237.17 207.114C237.402 204.293 237.061 201.453 236.165 198.768C235.27 196.082 233.84 193.605 231.961 191.487C230.082 189.37 227.793 187.654 225.233 186.446L218.971 183.488C214.108 181.192 208.549 180.853 203.444 182.541C198.338 184.23 194.077 187.816 191.542 192.558L62.1602 434.591C59.957 438.712 58.8043 443.314 58.8043 447.987V447.987C58.8043 451.719 59.5393 455.414 60.9673 458.861C62.3954 462.309 64.4885 465.441 67.1271 468.08C69.7658 470.719 72.8983 472.812 76.3459 474.24C79.7935 475.668 83.4885 476.403 87.2202 476.403H239.539V542.57C239.539 545.869 240.189 549.135 241.451 552.183C242.713 555.23 244.564 557.999 246.896 560.332C249.229 562.664 251.998 564.515 255.045 565.777C258.093 567.039 261.359 567.689 264.658 567.689H264.658C267.957 567.689 271.223 567.039 274.271 565.777C277.318 564.515 280.087 562.664 282.42 560.332C284.752 557.999 286.603 555.23 287.865 552.183C289.127 549.135 289.777 545.869 289.777 542.57V476.403H325.311C330.998 476.403 336.452 474.144 340.474 470.122C344.495 466.101 346.754 460.647 346.754 454.96V454.96C346.754 449.273 344.495 443.819 340.474 439.797C336.453 435.776 330.998 433.517 325.311 433.517V433.517Z" fill="#2F2E41"/>
<path d="M983.308 433.517H947.774V328.877C947.774 323.32 945.566 317.989 941.636 314.059C937.706 310.129 932.376 307.922 926.818 307.922H918.491C915.739 307.922 913.014 308.464 910.472 309.517C907.929 310.57 905.619 312.113 903.673 314.059C901.727 316.005 900.184 318.315 899.131 320.858C898.077 323.4 897.535 326.125 897.535 328.877V433.517H797.305C795.243 433.517 793.216 432.984 791.421 431.97C789.626 430.955 788.123 429.494 787.059 427.728C785.995 425.962 785.405 423.951 785.347 421.89C785.289 419.829 785.764 417.788 786.728 415.965L892.81 215.184C894.133 212.681 894.934 209.936 895.167 207.114C895.399 204.293 895.057 201.453 894.162 198.768C893.266 196.082 891.836 193.605 889.957 191.487C888.078 189.37 885.79 187.654 883.23 186.446L876.967 183.488C872.105 181.192 866.546 180.853 861.44 182.541C856.334 184.23 852.073 187.816 849.538 192.558L720.157 434.591C717.953 438.712 716.801 443.314 716.801 447.987C716.801 455.523 719.795 462.751 725.124 468.08C730.453 473.409 737.68 476.403 745.217 476.403H897.535V542.57C897.535 549.232 900.182 555.621 904.893 560.332C909.603 565.043 915.992 567.689 922.654 567.689C929.316 567.689 935.706 565.043 940.416 560.332C945.127 555.621 947.773 549.232 947.773 542.57V476.403H983.308C988.995 476.403 994.449 474.144 998.47 470.122C1002.49 466.101 1004.75 460.647 1004.75 454.96C1004.75 449.273 1002.49 443.819 998.47 439.797C994.449 435.776 988.995 433.517 983.308 433.517Z" fill="#2F2E41"/>
<path d="M335.114 421.264H299.58V316.624C299.58 313.872 299.038 311.147 297.984 308.605C296.931 306.062 295.388 303.752 293.442 301.806C291.496 299.86 289.186 298.317 286.643 297.263C284.101 296.21 281.376 295.668 278.624 295.668H270.297C264.74 295.668 259.409 297.876 255.479 301.806C251.549 305.736 249.341 311.066 249.341 316.624V421.264H149.111C147.049 421.264 145.023 420.731 143.227 419.716C141.432 418.702 139.929 417.241 138.865 415.475C137.801 413.709 137.211 411.698 137.153 409.637C137.095 407.576 137.571 405.535 138.534 403.712L244.616 202.931C245.939 200.428 246.74 197.683 246.973 194.861C247.205 192.04 246.863 189.2 245.968 186.514C245.072 183.828 243.642 181.352 241.763 179.234C239.884 177.116 237.596 175.401 235.036 174.192L228.773 171.235C223.911 168.939 218.352 168.6 213.246 170.288C208.141 171.976 203.879 175.563 201.344 180.305L71.9627 422.338C69.7595 426.459 68.6069 431.06 68.6069 435.734V435.734C68.6069 443.27 71.6007 450.498 76.9297 455.827C82.2587 461.156 89.4864 464.15 97.0227 464.15H249.341V530.317C249.341 533.616 249.991 536.882 251.254 539.93C252.516 542.977 254.366 545.746 256.699 548.079C259.031 550.411 261.8 552.262 264.848 553.524C267.895 554.786 271.162 555.436 274.46 555.436H274.461C281.122 555.436 287.512 552.789 292.222 548.079C296.933 543.368 299.58 536.979 299.58 530.317V464.15H335.114C337.93 464.15 340.718 463.595 343.32 462.517C345.921 461.44 348.285 459.86 350.276 457.869C352.268 455.878 353.847 453.514 354.925 450.913C356.002 448.311 356.557 445.523 356.557 442.707V442.707C356.557 439.891 356.002 437.102 354.925 434.501C353.847 431.899 352.268 429.535 350.276 427.544C348.285 425.553 345.921 423.973 343.32 422.896C340.718 421.818 337.93 421.264 335.114 421.264V421.264Z" stroke="#3F3D56" stroke-miterlimit="10"/>
<path d="M1001.69 421.264H966.153V316.624C966.153 311.066 963.945 305.736 960.016 301.806C956.086 297.876 950.755 295.668 945.197 295.668H936.871C934.119 295.668 931.394 296.21 928.852 297.263C926.309 298.317 923.999 299.86 922.053 301.806C920.107 303.752 918.564 306.062 917.51 308.605C916.457 311.147 915.915 313.872 915.915 316.624V421.264H815.685C813.623 421.264 811.596 420.731 809.801 419.716C808.006 418.702 806.503 417.241 805.439 415.475C804.374 413.709 803.785 411.698 803.727 409.637C803.669 407.576 804.144 405.535 805.108 403.712L911.19 202.931C912.512 200.428 913.314 197.683 913.546 194.861C913.779 192.04 913.437 189.2 912.542 186.514C911.646 183.828 910.216 181.352 908.337 179.234C906.458 177.116 904.17 175.401 901.61 174.192L895.347 171.235C890.485 168.939 884.925 168.6 879.82 170.288C874.714 171.976 870.453 175.563 867.918 180.305L738.536 422.338C736.333 426.459 735.181 431.06 735.181 435.734C735.181 443.27 738.174 450.498 743.503 455.827C748.832 461.156 756.06 464.15 763.596 464.15H915.915V530.317C915.915 536.979 918.562 543.368 923.272 548.079C927.983 552.789 934.372 555.436 941.034 555.436V555.436C947.696 555.436 954.085 552.789 958.796 548.079C963.507 543.368 966.153 536.979 966.153 530.317V464.15H1001.69C1004.5 464.15 1007.29 463.595 1009.89 462.517C1012.49 461.44 1014.86 459.86 1016.85 457.869C1018.84 455.878 1020.42 453.514 1021.5 450.913C1022.58 448.311 1023.13 445.523 1023.13 442.707V442.707C1023.13 437.02 1020.87 431.565 1016.85 427.544C1012.83 423.523 1007.37 421.264 1001.69 421.264V421.264Z" stroke="#3F3D56" stroke-miterlimit="10"/>
<path d="M544.031 155.982C458.087 155.982 396.38 211.121 396.38 339.78C396.38 485.593 458.087 524.19 544.031 524.19C629.975 524.19 695.358 481.917 695.358 339.78C695.358 187.84 629.975 155.982 544.031 155.982ZM544.596 475.79C485.069 475.79 453.97 440.867 453.97 339.874C453.97 250.762 486.342 203.769 545.869 203.769C605.396 203.769 637.768 234.637 637.768 339.874C637.768 438.321 604.123 475.79 544.596 475.79V475.79Z" stroke="#3F3D56" stroke-miterlimit="10"/>
<path d="M475.141 31.1516C482.266 31.1516 488.042 25.3755 488.042 18.2504C488.042 11.1253 482.266 5.34924 475.141 5.34924C468.016 5.34924 462.24 11.1253 462.24 18.2504C462.24 25.3755 468.016 31.1516 475.141 31.1516Z" fill="#2F2E41"/>
<path d="M506.607 93.7695C526.592 93.7695 542.794 72.7785 542.794 46.8848C542.794 20.991 526.592 0 506.607 0C486.622 0 470.421 20.991 470.421 46.8848C470.421 72.7785 486.622 93.7695 506.607 93.7695Z" fill="#2F2E41"/>
<path opacity="0.1" d="M506.607 79.6097C488.48 79.6097 473.466 62.3392 470.832 39.8049C470.558 42.1549 470.421 44.5188 470.421 46.8848C470.421 72.7785 486.622 93.7695 506.607 93.7695C526.592 93.7695 542.794 72.7785 542.794 46.8848C542.794 44.5188 542.657 42.1549 542.383 39.8049C539.749 62.3392 524.735 79.6097 506.607 79.6097Z" fill="black"/>
<path d="M580.242 184.189C579.465 187.382 576.114 189.94 572.403 191.727C564.602 195.483 554.978 196.605 545.644 196.981C543.262 197.126 540.873 197.081 538.499 196.849C533.898 196.404 529.582 194.42 526.249 191.217C526.011 191.062 525.816 190.849 525.683 190.599C525.549 190.348 525.481 190.067 525.486 189.783C525.49 189.499 525.566 189.221 525.707 188.975C525.849 188.728 526.05 188.521 526.292 188.374C531.262 182.915 539.555 179.567 547.909 177.157C554.243 175.33 565.29 170.597 572.199 171.235C578.89 171.854 581.223 180.157 580.242 184.189Z" fill="#3F3D56"/>
<path opacity="0.1" d="M580.242 184.189C579.465 187.382 576.114 189.94 572.403 191.727C564.602 195.483 554.978 196.605 545.644 196.981C543.262 197.126 540.873 197.081 538.499 196.849C533.898 196.404 529.582 194.42 526.249 191.217C526.011 191.062 525.816 190.849 525.683 190.599C525.549 190.348 525.481 190.067 525.486 189.783C525.49 189.499 525.566 189.221 525.707 188.975C525.849 188.728 526.05 188.521 526.292 188.374C531.262 182.915 539.555 179.567 547.909 177.157C554.243 175.33 565.29 170.597 572.199 171.235C578.89 171.854 581.223 180.157 580.242 184.189Z" fill="black"/>
<path d="M481.044 160.321C478.662 164.989 478.231 170.411 479.845 175.396C481.487 180.344 484.56 184.693 488.674 187.893C498.769 195.985 512.662 197.098 525.599 196.986C536.937 196.887 548.259 196.111 559.504 194.662C563.273 194.328 566.976 193.468 570.506 192.108C574.728 190.281 578.439 186.93 579.942 182.582C581.445 178.234 580.378 172.909 576.808 170.008C573.671 167.458 569.345 167.107 565.31 166.865L542.223 165.477C544.504 163.169 547.541 161.863 550.318 160.185C554.004 157.959 556.452 154.22 559.132 150.85C563.26 145.916 567.752 141.297 572.57 137.033C573.322 141.344 576.048 144.883 579.258 147.857C582.467 150.831 586.166 153.226 589.501 156.057C597.58 162.916 603.397 172.224 611.894 178.558C617.738 177.022 623.202 174.294 627.942 170.546L624.64 164.564C624.365 163.949 623.936 163.414 623.396 163.011C622.461 162.436 621.256 162.733 620.17 162.57C617.27 162.135 616.003 158.786 614.865 156.083C611.74 148.661 605.757 142.903 600.647 136.679C596.875 132.084 593.529 127.157 590.651 121.956C588.934 118.854 587.363 115.625 585.033 112.953C582.704 110.281 579.44 108.18 575.895 108.172C572.763 108.166 569.874 109.756 567.181 111.355C558.978 116.227 551.087 121.604 543.551 127.454C539.607 130.516 535.688 133.751 531.061 135.628C529.114 136.419 527.061 136.959 525.192 137.92C521.919 139.605 519.435 142.455 516.761 144.985C507.223 154.008 494.165 159.854 481.044 160.321Z" fill="#3F3D56"/>
<path d="M529.32 96.098C529.213 98.8562 528.626 101.575 527.586 104.131C527.059 105.407 526.275 106.56 525.282 107.518C524.29 108.477 523.111 109.221 521.818 109.704C519.983 110.196 518.059 110.258 516.195 109.887C514.57 109.717 513.004 109.183 511.614 108.326C509.449 106.837 508.369 104.182 507.976 101.583C507.583 98.9866 507.759 96.334 507.507 93.7192C507.262 91.6071 506.86 89.5162 506.305 87.4637C506.135 86.7809 505.962 86.1012 505.792 85.4215C505.626 84.7419 505.462 84.0622 505.311 83.3825C505.172 82.7438 505.043 82.1018 504.933 81.4568C504.842 80.9124 504.76 80.3649 504.7 79.8142C504.645 78.1817 504.373 76.5638 503.892 75.0031C503.44 73.9908 502.874 73.0333 502.205 72.1491C501.919 71.74 501.642 71.3309 501.387 70.9061C500.65 69.8022 500.307 68.4816 500.415 67.1585C500.445 66.954 500.495 66.7527 500.563 66.5575C500.588 66.482 500.616 66.4065 500.648 66.3341C500.931 66.2573 501.191 66.1125 501.405 65.9123C501.62 65.7121 501.782 65.4627 501.878 65.1855C501.986 64.5902 501.935 63.9769 501.73 63.4077C501.495 62.6123 501.173 61.8451 500.77 61.1201C500.506 60.6418 499.609 59.7796 499.603 59.2321C499.59 58.1308 501.743 57.2434 502.614 56.8092C505.275 55.4769 508.242 54.8753 511.211 55.0659C513.115 55.1949 515.179 55.7802 516.23 57.3756C517.174 58.8136 517.048 60.6764 517.451 62.3473C517.493 62.5901 517.596 62.8184 517.75 63.0112C517.955 63.1983 518.213 63.317 518.489 63.351C518.955 63.4437 519.433 63.4629 519.905 63.4077H519.908C520.033 63.3978 520.157 63.3799 520.28 63.3542C521.015 63.2185 521.71 62.9184 522.312 62.4763C522.702 62.3724 523.096 62.2874 523.492 62.2214C523.508 62.2197 523.524 62.2166 523.539 62.2119C525.116 67.1867 525.32 72.5203 526.611 77.5864C527.249 80.1068 528.165 82.5958 528.294 85.1886C528.303 85.3019 528.307 85.4183 528.31 85.5347C528.329 86.3686 528.263 87.2087 528.297 88.0395C528.309 88.4135 528.351 88.786 528.423 89.1533C528.564 89.7442 528.74 90.3262 528.949 90.8966L528.958 90.9249C529.018 91.1074 529.074 91.2931 529.122 91.4787C529.156 91.614 529.188 91.7462 529.213 91.8815L529.216 91.8909C529.449 93.2814 529.484 94.6978 529.32 96.098Z" fill="#B0B0B0"/>
<path d="M507.237 63.5619C517.49 63.5619 525.802 55.25 525.802 44.9968C525.802 34.7435 517.49 26.4316 507.237 26.4316C496.983 26.4316 488.672 34.7435 488.672 44.9968C488.672 55.25 496.983 63.5619 507.237 63.5619Z" fill="#B0B0B0"/>
<path d="M625.103 146.148C624.565 141.083 622.765 136.234 619.867 132.045C620.349 134.909 620.831 137.771 621.315 140.632C620.714 140.806 620.075 140.801 619.477 140.617C618.879 140.433 618.347 140.079 617.948 139.597C617.166 138.621 616.568 137.511 616.182 136.321C614.073 131.085 611.315 126.135 607.973 121.586C596.154 120.601 584.471 115.702 574.077 109.99C563.681 104.282 553.952 97.4385 543.694 91.4882C541.915 90.4132 540.062 89.4668 538.149 88.6562C534.94 87.3692 531.337 86.7021 528.294 85.1886C528.089 85.0879 527.885 84.9809 527.683 84.8708C526.996 84.4969 526.345 84.0598 525.739 83.5649C525.411 83.2989 525.1 83.0131 524.807 82.7091C523.289 80.9428 522.086 78.9291 521.249 76.7557C519.616 73.1433 519.033 68.7852 517.404 65.1729C518.153 64.4728 518.994 63.8788 519.905 63.4077H519.908C520.04 63.3384 520.172 63.2723 520.308 63.2094C520.953 62.9057 521.624 62.6603 522.312 62.4762C522.702 62.3724 523.096 62.2874 523.492 62.2214C523.508 62.2197 523.524 62.2166 523.539 62.2119C525.378 61.9124 527.262 62.0613 529.03 62.6462C531.617 63.5209 533.797 65.2673 535.972 66.9193C539.504 69.4079 542.892 72.0952 546.12 74.9684C547.913 76.6864 549.549 78.5744 551.478 80.1351C553.081 81.3722 554.771 82.4922 556.535 83.4863C566.972 89.704 577.411 95.9207 587.85 102.136C591.384 104.241 594.921 106.347 598.376 108.574C603.624 111.96 608.684 115.629 613.741 119.295C616.721 121.453 619.699 123.613 622.677 125.774C623.654 126.397 624.512 127.19 625.21 128.115C625.827 129.165 626.21 130.336 626.333 131.548C627.081 136.444 626.659 141.447 625.103 146.148V146.148Z" fill="#B0B0B0"/>
<path d="M533.923 110.06C532.671 115.676 526.994 119.072 524.027 124.005C520.339 130.129 521.843 137.246 523.228 144.26C520.698 146.441 518.167 148.622 515.635 150.802C514.238 152.001 512.841 153.206 511.337 154.267C509.144 155.736 506.852 157.052 504.477 158.206C502.237 159.358 499.996 160.511 497.756 161.664C495.673 162.835 493.466 163.77 491.176 164.452C486.762 165.585 482.073 164.792 477.706 163.48C477.191 163.345 476.695 163.143 476.233 162.879C475.961 162.716 475.723 162.501 475.534 162.246C475.104 161.474 474.947 160.579 475.091 159.707C475.534 152.357 477.331 145.16 479.122 138.017C480.079 133.732 481.365 129.527 482.97 125.44C484.544 121.938 486.353 118.547 488.385 115.289C490.628 111.191 493.285 107.333 496.315 103.776C497.79 102.407 499.031 100.806 499.99 99.0369C501.107 96.4882 500.676 93.5649 500.903 90.7896C501.076 88.7045 501.629 86.6686 502.536 84.7827V84.7796C503.02 83.7638 503.604 82.7983 504.279 81.8973C504.584 82.6084 504.889 83.3185 505.195 84.0275C505.396 84.4932 505.595 84.9579 505.792 85.4215C506.05 86.0194 506.306 86.6152 506.56 87.2088C507.293 88.9143 508.025 90.6187 508.757 92.3221C509.547 94.4675 510.672 96.4739 512.092 98.2661C512.741 99.1838 513.617 99.9176 514.634 100.396C515.651 100.874 516.775 101.08 517.895 100.994C519.016 100.908 520.095 100.533 521.028 99.9055C521.96 99.2779 522.714 98.4192 523.215 97.4133C524.273 95.5357 525.039 93.5081 525.487 91.4001C526.109 88.8335 526.194 86.1663 525.739 83.565C524.981 78.5556 522.85 73.4392 521.302 68.7853C520.672 67.2336 520.307 65.587 520.223 63.9143C520.226 63.7264 520.245 63.539 520.279 63.3542C520.289 63.307 520.298 63.2567 520.308 63.2095C520.953 62.9058 521.624 62.6604 522.312 62.4763C522.702 62.3725 523.096 62.2875 523.492 62.2214C524.855 69.5971 526.219 76.9728 527.586 84.3485C527.617 84.5216 527.652 84.6947 527.684 84.8709C527.879 85.9281 528.077 86.9854 528.297 88.0395C528.495 88.9961 528.709 89.9495 528.948 90.8967L528.958 90.925C529.04 91.246 529.125 91.5638 529.213 91.8816L529.216 91.891C529.458 92.7595 529.729 93.6216 530.034 94.4712C531.884 99.5908 535.11 104.745 533.923 110.06Z" fill="white"/>
<path d="M609.267 188.993C609.209 190.075 609.419 191.154 609.877 192.136C611.039 194.259 613.827 194.742 616.24 194.941C630.332 196.099 644.51 195.667 658.505 193.653C659.265 193.601 660.001 193.372 660.657 192.985C662.647 191.59 661.42 188.19 659.247 187.102C657.074 186.013 654.496 186.276 652.112 185.804C649.743 185.208 647.488 184.23 645.434 182.908C640.599 180.13 635.835 177.234 631.141 174.22C628.346 172.425 625.048 170.51 621.901 171.574C613.376 174.458 609.211 179.796 609.267 188.993Z" fill="#3F3D56"/>
<path d="M505.383 82.9892V82.9923C505.361 83.1245 505.339 83.2535 505.311 83.3825C505.276 83.5965 505.235 83.8136 505.195 84.0275C504.804 86.0256 504.326 88.0143 503.775 89.9904C502.265 95.4498 500.242 100.821 498.234 106.114C492.847 120.305 487.459 134.497 482.07 148.691C480.711 152.265 479.354 155.843 477.809 159.345C477.293 160.513 476.762 161.689 476.233 162.879C474.339 167.136 472.52 171.532 471.916 176.063C471.353 179.045 471.288 182.1 471.724 185.103C472.328 188.074 474.131 190.975 476.954 192.073C478.332 192.611 480.305 193.332 479.927 194.764C479.723 195.55 478.829 195.934 478.027 196.066C476.967 196.235 475.883 196.169 474.852 195.872C473.821 195.575 472.868 195.055 472.061 194.348C470.553 193.011 469.395 190.931 467.391 190.708C466.003 190.557 464.726 191.387 463.454 191.969C458.269 194.339 452.227 192.681 446.781 190.997C447.208 188.791 449.424 187.338 451.623 186.897C453.823 186.453 456.098 186.768 458.341 186.708C459.06 186.747 459.773 186.563 460.383 186.183C460.931 185.68 461.315 185.025 461.485 184.301C462.93 180.019 464.005 175.621 464.697 171.155C465.421 166.488 465.723 161.749 466.755 157.139C467.558 153.543 468.797 150.06 469.861 146.529C471.918 139.26 473.606 131.892 474.921 124.452C475.585 121.362 476.061 118.233 476.346 115.085C476.526 112.473 476.441 109.849 476.692 107.246C477.115 103.861 477.821 100.517 478.804 97.2497C479.767 93.6845 480.728 90.1215 481.689 86.5606C483.115 81.29 484.644 75.8149 488.256 71.7179C489.511 70.2756 491.048 69.1064 492.773 68.2826C494.498 67.4588 496.374 66.998 498.285 66.9288C499.001 66.9279 499.715 67.0049 500.415 67.1585C500.531 67.1868 500.648 67.2151 500.764 67.2466C501.526 67.4459 502.258 67.7487 502.938 68.1465C504.052 67.4385 504.619 67.6871 505.358 68.779C506.006 69.9345 506.312 71.2509 506.239 72.5738C506.302 76.0655 506.015 79.5546 505.383 82.9892Z" fill="#B0B0B0"/>
<path d="M506.607 87.1616L506.56 87.2088L506.305 87.4637L503.775 89.9904L502.536 84.7827L498.285 66.9287C499.001 66.9279 499.715 67.0049 500.415 67.1584C500.445 66.9539 500.495 66.7527 500.563 66.5574L500.764 67.2465L502.205 72.149L504.933 81.4567L505.383 82.9891V82.9923L506.607 87.1616Z" fill="white"/>
<path d="M522.661 30.2028C522.659 31.856 522.331 33.4926 521.696 35.019C521.061 36.5454 520.132 37.9317 518.961 39.0986C518.537 39.5234 518.082 39.9166 517.601 40.275C515.429 41.9119 512.784 42.7979 510.065 42.7991H494.969C491.633 42.794 488.436 41.4653 486.079 39.1047C483.722 36.7441 482.398 33.5447 482.398 30.209C482.398 26.8732 483.722 23.6738 486.079 21.3132C488.436 18.9527 491.633 17.6239 494.969 17.6188H510.065C513.401 17.6275 516.598 18.9557 518.958 21.3134C521.318 23.6712 522.649 26.8669 522.661 30.2028V30.2028Z" fill="#2F2E41"/>
<path d="M536.815 31.1516C543.94 31.1516 549.716 25.3755 549.716 18.2504C549.716 11.1253 543.94 5.34924 536.815 5.34924C529.69 5.34924 523.914 11.1253 523.914 18.2504C523.914 25.3755 529.69 31.1516 536.815 31.1516Z" fill="#2F2E41"/>
<path opacity="0.1" d="M536.5 5.34924C536.342 5.34924 536.185 5.35553 536.028 5.36118C539.366 5.48251 542.526 6.89359 544.844 9.29753C547.162 11.7015 548.457 14.9109 548.457 18.2504C548.457 21.59 547.162 24.7994 544.844 27.2033C542.526 29.6073 539.366 31.0183 536.028 31.1397C536.185 31.1453 536.342 31.1516 536.5 31.1516C539.922 31.1516 543.203 29.7924 545.623 27.3729C548.042 24.9535 549.401 21.672 549.401 18.2504C549.401 14.8288 548.042 11.5474 545.623 9.12791C543.203 6.70847 539.922 5.34924 536.5 5.34924V5.34924Z" fill="black"/>
<path opacity="0.1" d="M475.141 5.34924C475.299 5.34924 475.456 5.35553 475.613 5.36118C472.276 5.48251 469.116 6.89359 466.797 9.29753C464.479 11.7015 463.184 14.9109 463.184 18.2504C463.184 21.59 464.479 24.7994 466.797 27.2033C469.116 29.6073 472.276 31.0183 475.613 31.1397C475.456 31.1453 475.299 31.1516 475.141 31.1516C471.721 31.1486 468.443 29.788 466.026 27.3689C463.609 24.9498 462.251 21.6701 462.251 18.2504C462.251 14.8308 463.609 11.551 466.026 9.13193C468.443 6.71281 471.721 5.35225 475.141 5.34924Z" fill="black"/>
<path opacity="0.1" d="M517.601 40.275C515.429 41.9119 512.784 42.7979 510.065 42.7991H494.969C492.25 42.7978 489.605 41.9119 487.433 40.275H517.601Z" fill="black"/>
<path d="M615.086 133.756C615.086 133.756 618.338 143.128 621.315 140.632L618.942 128.382L615.086 133.756Z" fill="#BFBFBF"/>
<path d="M1010.86 419.55C1013.89 420.651 1017.14 421.034 1020.34 420.667C1023.54 420.301 1026.62 419.196 1029.32 417.439C1032.02 415.683 1034.28 413.322 1035.91 410.544C1037.55 407.766 1038.51 404.647 1038.74 401.431C1038.96 398.216 1038.43 394.992 1037.2 392.015C1035.96 389.038 1034.05 386.388 1031.62 384.275C1029.19 382.161 1026.3 380.642 1023.17 379.837C1020.05 379.032 1016.79 378.962 1013.64 379.634L1014.16 390.347L1009.09 381.166C1004.11 383.503 1000.27 387.72 998.404 392.889C997.741 394.699 997.338 396.595 997.207 398.519C996.887 403.032 998.048 407.527 1000.51 411.322C1002.98 415.117 1006.61 418.006 1010.86 419.55Z" fill="#A6A6A6"/>
<path d="M1035.94 543.793C1034.15 534.683 1041.9 526.606 1049.56 521.357C1057.22 516.107 1066.17 510.949 1068.78 502.04C1072.53 489.236 1061.35 477.51 1052.64 467.398C1046.19 459.894 1040.64 451.65 1036.12 442.841C1034.31 439.308 1032.64 435.615 1032.17 431.674C1031.48 425.999 1033.31 420.351 1035.14 414.938C1041.26 396.903 1047.8 379.02 1054.77 361.288" stroke="#3F3D56" stroke-miterlimit="10"/>
<path d="M1011.72 416.792C1014.75 417.893 1017.99 418.276 1021.2 417.909C1024.4 417.543 1027.47 416.438 1030.17 414.682C1032.88 412.925 1035.13 410.565 1036.77 407.787C1038.4 405.009 1039.37 401.889 1039.59 398.673C1039.82 395.458 1039.29 392.234 1038.06 389.257C1036.82 386.28 1034.91 383.63 1032.48 381.517C1030.04 379.403 1027.15 377.884 1024.03 377.079C1020.91 376.274 1017.64 376.204 1014.49 376.876L1015.01 387.589L1009.95 378.408C1004.97 380.745 1001.13 384.962 999.262 390.131C998.599 391.941 998.196 393.837 998.064 395.761C997.745 400.274 998.905 404.769 1001.37 408.564C1003.83 412.359 1007.47 415.248 1011.72 416.792V416.792Z" stroke="#3F3D56" stroke-miterlimit="10"/>
<path d="M1033.4 357.588C1034.59 354.308 1036.58 351.38 1039.2 349.073C1041.82 346.767 1044.97 345.157 1048.38 344.391L1050.09 354.574L1053.27 343.879C1057.68 343.944 1061.96 345.41 1065.48 348.064C1069 350.718 1071.59 354.423 1072.87 358.645C1074.15 362.866 1074.06 367.386 1072.6 371.551C1071.15 375.715 1068.41 379.31 1064.78 381.815C1061.15 384.32 1056.81 385.607 1052.4 385.489C1047.99 385.371 1043.73 383.854 1040.24 381.158C1036.75 378.462 1034.21 374.726 1032.98 370.49C1031.74 366.253 1031.89 361.735 1033.4 357.588Z" fill="#A6A6A6"/>
<path d="M1034.54 353.911C1035.73 350.631 1037.72 347.703 1040.34 345.396C1042.96 343.09 1046.12 341.479 1049.52 340.713L1051.23 350.897L1054.41 340.201C1058.82 340.267 1063.1 341.732 1066.62 344.387C1070.15 347.041 1072.74 350.746 1074.02 354.968C1075.3 359.189 1075.2 363.709 1073.75 367.873C1072.29 372.038 1069.55 375.633 1065.92 378.138C1062.29 380.643 1057.96 381.93 1053.55 381.812C1049.14 381.694 1044.88 380.177 1041.38 377.481C1037.89 374.785 1035.35 371.049 1034.12 366.813C1032.89 362.576 1033.04 358.058 1034.54 353.911H1034.54Z" stroke="#3F3D56" stroke-miterlimit="10"/>
<path d="M1048.99 467.604C1053.8 469.347 1059.07 469.261 1063.82 467.363C1068.56 465.464 1072.44 461.886 1074.72 457.311C1076.99 452.735 1077.51 447.482 1076.16 442.553C1074.81 437.623 1071.7 433.362 1067.41 430.582L1064.97 438.801L1063.24 428.497C1063.22 428.489 1063.2 428.482 1063.18 428.477C1060.62 427.543 1057.89 427.125 1055.16 427.246C1052.42 427.367 1049.74 428.025 1047.27 429.182C1044.79 430.339 1042.56 431.973 1040.72 433.991C1038.87 436.008 1037.44 438.369 1036.51 440.94C1035.58 443.51 1035.16 446.238 1035.29 448.97C1035.41 451.701 1036.07 454.381 1037.23 456.857C1038.39 459.334 1040.02 461.557 1042.04 463.401C1044.06 465.245 1046.42 466.674 1048.99 467.604H1048.99Z" fill="#A6A6A6"/>
<path d="M1049.98 463.88C1054.79 465.622 1060.06 465.536 1064.81 463.638C1069.55 461.74 1073.43 458.162 1075.71 453.586C1077.99 449.011 1078.5 443.758 1077.15 438.828C1075.8 433.899 1072.69 429.638 1068.4 426.857L1065.96 435.076L1064.23 424.772C1064.21 424.764 1064.19 424.758 1064.17 424.752C1061.61 423.818 1058.88 423.4 1056.15 423.521C1053.41 423.642 1050.73 424.3 1048.26 425.457C1045.78 426.615 1043.55 428.249 1041.71 430.266C1039.86 432.284 1038.43 434.645 1037.5 437.215C1036.57 439.785 1036.15 442.514 1036.28 445.245C1036.4 447.976 1037.06 450.656 1038.22 453.133C1039.38 455.609 1041.01 457.833 1043.03 459.677C1045.05 461.521 1047.41 462.949 1049.98 463.88H1049.98Z" stroke="#3F3D56" stroke-miterlimit="10"/>
<path d="M1027.32 502.167C1028.15 506.867 1030.57 511.14 1034.17 514.27C1037.77 517.4 1042.34 519.195 1047.11 519.356C1051.88 519.517 1056.56 518.032 1060.37 515.152C1064.17 512.272 1066.87 508.171 1068.01 503.537C1069.15 498.903 1068.66 494.018 1066.63 489.701C1064.59 485.384 1061.14 481.897 1056.84 479.826C1052.54 477.755 1047.66 477.225 1043.02 478.326C1038.37 479.426 1034.25 482.09 1031.33 485.87L1040.61 499.826L1027.94 492.418C1026.95 495.572 1026.74 498.915 1027.32 502.167Z" fill="#A6A6A6"/>
<path d="M1028.18 499.409C1029.01 504.109 1031.42 508.382 1035.03 511.512C1038.63 514.642 1043.2 516.437 1047.97 516.598C1052.74 516.759 1057.42 515.274 1061.22 512.394C1065.03 509.514 1067.73 505.413 1068.87 500.779C1070.01 496.145 1069.52 491.26 1067.49 486.943C1065.45 482.626 1062 479.139 1057.7 477.068C1053.4 474.997 1048.52 474.467 1043.87 475.568C1039.23 476.668 1035.1 479.332 1032.19 483.112L1041.46 497.068L1028.79 489.661C1027.81 492.814 1027.6 496.157 1028.18 499.409V499.409Z" stroke="#3F3D56" stroke-miterlimit="10"/>
<path d="M13.0075 470.249C14.9978 470.972 17.1289 471.224 19.2329 470.983C21.337 470.743 23.3563 470.017 25.1319 468.862C26.9075 467.708 28.3908 466.157 29.4648 464.332C30.5388 462.507 31.1742 460.457 31.3208 458.345C31.4675 456.232 31.1215 454.114 30.3101 452.158C29.4987 450.202 28.244 448.461 26.645 447.073C25.0459 445.684 23.1463 444.686 21.0957 444.157C19.0451 443.628 16.8997 443.582 14.8285 444.024L15.1707 451.062L11.8409 445.03C8.57278 446.566 6.04805 449.336 4.82149 452.732C4.38589 453.922 4.12108 455.167 4.03495 456.431C3.82477 459.397 4.58698 462.35 6.20607 464.843C7.82517 467.337 10.2129 469.234 13.0075 470.249Z" fill="#A6A6A6"/>
<path d="M29.4837 551.879C28.3083 545.893 33.4017 540.587 38.4329 537.138C43.464 533.689 49.3427 530.3 51.0593 524.446C53.5264 516.034 46.1776 508.33 40.4579 501.686C36.2144 496.756 32.5702 491.34 29.6016 485.551C28.311 483.278 27.4319 480.794 27.0049 478.215C26.5539 474.486 27.7519 470.775 28.9588 467.219C32.9794 455.37 37.2782 443.62 41.8551 431.97" stroke="#3F3D56" stroke-miterlimit="10"/>
<path d="M13.5706 468.437C15.5609 469.16 17.6921 469.412 19.7961 469.171C21.9001 468.931 23.9195 468.205 25.6951 467.05C27.4707 465.896 28.9539 464.345 30.0279 462.52C31.1019 460.695 31.7373 458.645 31.884 456.533C32.0307 454.42 31.6847 452.302 30.8733 450.346C30.0618 448.39 28.8072 446.649 27.2081 445.261C25.6091 443.872 23.7094 442.874 21.6589 442.345C19.6083 441.816 17.4628 441.77 15.3916 442.212L15.7339 449.25L12.404 443.218C9.13595 444.754 6.61122 447.524 5.38467 450.92C4.94907 452.11 4.68426 453.355 4.59813 454.619C4.38793 457.585 5.15014 460.538 6.76923 463.031C8.38833 465.525 10.7761 467.422 13.5706 468.437V468.437Z" stroke="#3F3D56" stroke-miterlimit="10"/>
<path d="M27.8124 429.539C28.5935 427.384 29.9044 425.46 31.6244 423.945C33.3444 422.429 35.4181 421.371 37.6545 420.868L38.7803 427.559L40.8677 420.532C43.7659 420.575 46.5754 421.537 48.8907 423.281C51.206 425.025 52.9071 427.46 53.7486 430.233C54.5901 433.007 54.5283 435.976 53.5723 438.712C52.6162 441.449 50.8152 443.81 48.4295 445.456C46.0437 447.102 43.1966 447.948 40.2991 447.87C37.4016 447.793 34.6038 446.796 32.3095 445.025C30.0152 443.254 28.3432 440.799 27.5349 438.016C26.7265 435.232 26.8237 432.264 27.8124 429.539V429.539Z" fill="#A6A6A6"/>
<path d="M28.5632 427.123C29.3443 424.968 30.6552 423.044 32.3752 421.529C34.0952 420.013 36.169 418.955 38.4053 418.452L39.5312 425.143L41.6186 418.116C44.5168 418.158 47.3263 419.121 49.6415 420.865C51.9568 422.609 53.658 425.044 54.4995 427.817C55.3409 430.591 55.2792 433.56 54.3231 436.296C53.367 439.033 51.5661 441.394 49.1803 443.04C46.7946 444.686 43.9474 445.532 41.0499 445.454C38.1525 445.377 35.3546 444.38 33.0603 442.609C30.7661 440.838 29.094 438.383 28.2857 435.599C27.4774 432.816 27.5746 429.848 28.5632 427.123V427.123Z" stroke="#3F3D56" stroke-miterlimit="10"/>
<path d="M38.0576 501.822C41.214 502.967 44.6813 502.91 47.7987 501.663C50.9162 500.416 53.4656 498.065 54.9612 495.059C56.4568 492.052 56.7939 488.601 55.9083 485.362C55.0227 482.124 52.9763 479.324 50.1592 477.497L48.5553 482.897L47.418 476.127C47.4067 476.122 47.3951 476.118 47.3832 476.114C45.6948 475.5 43.9021 475.225 42.1073 475.304C40.3126 475.384 38.551 475.816 36.9234 476.576C35.2957 477.336 33.8338 478.41 32.6213 479.736C31.4088 481.061 30.4693 482.613 29.8567 484.301C29.2441 485.99 28.9703 487.783 29.0509 489.578C29.1315 491.373 29.565 493.134 30.3266 494.761C31.0882 496.388 32.163 497.849 33.4895 499.061C34.816 500.272 36.3683 501.21 38.0576 501.822Z" fill="#A6A6A6"/>
<path d="M38.7081 499.374C41.8645 500.519 45.3319 500.463 48.4493 499.216C51.5667 497.968 54.1162 495.618 55.6118 492.611C57.1074 489.605 57.4445 486.154 56.5589 482.915C55.6733 479.676 53.6269 476.877 50.8098 475.05L49.2059 480.45L48.0685 473.68C48.0573 473.675 48.0457 473.67 48.0337 473.667C46.3458 473.055 44.5537 472.781 42.7599 472.861C40.9661 472.941 39.2057 473.374 37.5791 474.135C34.2941 475.671 31.7539 478.449 30.5172 481.858C29.2806 485.267 29.4488 489.028 30.9849 492.313C32.521 495.597 35.2991 498.138 38.7081 499.374V499.374Z" stroke="#3F3D56" stroke-miterlimit="10"/>
<path d="M23.822 524.53C24.3647 527.618 25.9528 530.426 28.3198 532.482C30.6868 534.538 33.6889 535.718 36.8226 535.823C39.9562 535.929 43.0309 534.954 45.5309 533.061C48.0309 531.169 49.8042 528.475 50.5535 525.43C51.3027 522.385 50.9823 519.176 49.6459 516.339C48.3096 513.503 46.0386 511.212 43.2139 509.852C40.3891 508.491 37.1823 508.143 34.1314 508.866C31.0804 509.589 28.3708 511.339 26.457 513.822L32.5493 522.992L24.2249 518.125C23.5795 520.197 23.4413 522.393 23.822 524.53Z" fill="#A6A6A6"/>
<path d="M24.3851 522.718C24.9278 525.806 26.5159 528.614 28.8829 530.67C31.25 532.726 34.252 533.906 37.3857 534.011C40.5194 534.117 43.594 533.142 46.094 531.249C48.594 529.357 50.3673 526.663 51.1166 523.618C51.8658 520.573 51.5454 517.364 50.2091 514.527C48.8727 511.691 46.6017 509.4 43.777 508.039C40.9522 506.679 37.7454 506.331 34.6945 507.054C31.6435 507.777 28.9339 509.527 27.0201 512.01L33.1124 521.18L24.788 516.313C24.1426 518.385 24.0044 520.581 24.3851 522.718V522.718Z" stroke="#3F3D56" stroke-miterlimit="10"/>
<path d="M484.946 341.116C494.335 341.116 501.946 331.266 501.946 319.116C501.946 306.965 494.335 297.116 484.946 297.116C475.557 297.116 467.946 306.965 467.946 319.116C467.946 331.266 475.557 341.116 484.946 341.116Z" fill="#2F2E41"/>
<path d="M577.446 341.616C586.835 341.616 594.446 331.766 594.446 319.616C594.446 307.465 586.835 297.616 577.446 297.616C568.057 297.616 560.446 307.465 560.446 319.616C560.446 331.766 568.057 341.616 577.446 341.616Z" fill="#2F2E41"/>
<path d="M564.446 384.616C564.446 394.556 550.566 402.616 533.446 402.616C516.326 402.616 502.446 394.556 502.446 384.616C502.446 376.006 512.856 368.806 526.766 367.046C528.981 366.753 531.212 366.61 533.446 366.616C537.189 366.603 540.922 367.006 544.576 367.816C556.196 370.406 564.446 376.956 564.446 384.616Z" fill="#2F2E41"/>
<path d="M488.946 336.116C498.335 336.116 505.946 326.266 505.946 314.116C505.946 301.965 498.335 292.116 488.946 292.116C479.557 292.116 471.946 301.965 471.946 314.116C471.946 326.266 479.557 336.116 488.946 336.116Z" stroke="#3F3D56" stroke-miterlimit="10"/>
<path d="M581.446 336.616C590.835 336.616 598.446 326.766 598.446 314.616C598.446 302.465 590.835 292.616 581.446 292.616C572.057 292.616 564.446 302.465 564.446 314.616C564.446 326.766 572.057 336.616 581.446 336.616Z" stroke="#3F3D56" stroke-miterlimit="10"/>
<path d="M537.446 397.616C554.567 397.616 568.446 389.557 568.446 379.616C568.446 369.674 554.567 361.616 537.446 361.616C520.325 361.616 506.446 369.674 506.446 379.616C506.446 389.557 520.325 397.616 537.446 397.616Z" stroke="#3F3D56" stroke-miterlimit="10"/>
<path d="M544.946 369.316C544.954 370.573 544.482 371.786 543.626 372.708C543.222 373.149 542.73 373.502 542.183 373.744C541.636 373.986 541.044 374.113 540.446 374.116H530.446C529.214 374.073 528.049 373.544 527.205 372.644C526.362 371.745 525.909 370.548 525.946 369.316C525.941 368.341 526.226 367.386 526.766 366.574C528.979 366.263 531.211 366.109 533.446 366.116C537.193 366.103 540.929 366.533 544.576 367.396C544.823 368.005 544.948 368.658 544.946 369.316V369.316Z" fill="white"/>
<path d="M488.946 313.116C491.707 313.116 493.946 310.877 493.946 308.116C493.946 305.354 491.707 303.116 488.946 303.116C486.185 303.116 483.946 305.354 483.946 308.116C483.946 310.877 486.185 313.116 488.946 313.116Z" fill="white"/>
<path d="M581.946 313.116C584.707 313.116 586.946 310.877 586.946 308.116C586.946 305.354 584.707 303.116 581.946 303.116C579.185 303.116 576.946 305.354 576.946 308.116C576.946 310.877 579.185 313.116 581.946 313.116Z" fill="white"/>
<path opacity="0.3" d="M586.946 360.116C589.707 360.116 591.946 357.877 591.946 355.116C591.946 352.354 589.707 350.116 586.946 350.116C584.185 350.116 581.946 352.354 581.946 355.116C581.946 357.877 584.185 360.116 586.946 360.116Z" fill="#181818"/>
<path opacity="0.3" d="M464.946 360.116C467.707 360.116 469.946 357.877 469.946 355.116C469.946 352.354 467.707 350.116 464.946 350.116C462.185 350.116 459.946 352.354 459.946 355.116C459.946 357.877 462.185 360.116 464.946 360.116Z" fill="#181818"/>
</g>
</g>
<defs>
<filter id="filter0_d" x="0" y="0" width="1082.39" height="592.231" filterUnits="userSpaceOnUse" color-interpolation-filters="sRGB">
<feFlood flood-opacity="0" result="BackgroundImageFix"/>
<feColorMatrix in="SourceAlpha" type="matrix" values="0 0 0 0 0 0 0 0 0 0 0 0 0 0 0 0 0 0 127 0"/>
<feOffset dy="4"/>
<feGaussianBlur stdDeviation="2"/>
<feColorMatrix type="matrix" values="0 0 0 0 0 0 0 0 0 0 0 0 0 0 0 0 0 0 0.25 0"/>
<feBlend mode="normal" in2="BackgroundImageFix" result="effect1_dropShadow"/>
<feBlend mode="normal" in="SourceGraphic" in2="effect1_dropShadow" result="shape"/>
</filter>
<clipPath id="clip0">
<rect x="4" width="1074.39" height="584.231" fill="white"/>
</clipPath>
</defs>
</svg>
